<?xml version="1.0" standalone="no"?>
<!DOCTYPE svg PUBLIC "-//W3C//DTD SVG 1.1//EN" "http://www.w3.org/Graphics/SVG/1.1/DTD/svg11.dtd" >
<svg xmlns="http://www.w3.org/2000/svg" xmlns:xlink="http://www.w3.org/1999/xlink" version="1.1">
<metadata></metadata>
<defs>
<font id="plexifont_bvregular" horiz-adv-x="563" >
<font-face units-per-em="2048" ascent="1638" descent="-410" />
<missing-glyph horiz-adv-x="500" />
<glyph horiz-adv-x="0" />
<glyph unicode="&#xd;" />
<glyph unicode=" " />
<glyph unicode="!" horiz-adv-x="694" d="M262 1532l334 -72l-43 -1022q-2 0 -2 -4l-2 2l-96 -35q55 -18 92 -68t37 -108q0 -82 -70 -112v-2l-233 -82q-23 -10 -50 -11q-72 0 -126 56.5t-54 128.5q0 61 43 98q10 8 55 25l109 39l-180 36l-45 1047l4 -2l-2 2l229 82v2zM317 582l33 784l-67 14zM365 1366l-39 -868 l213 -45l43 991zM567 1454l-291 62l7 -121l73 -17zM264 1516l-209 -74l213 -45zM45 1430l43 -1006l219 76l-37 882zM96 412l185 -39l26 10l6 102l-6 2zM362 391l3 -4q-12 -2 -33 -14l69 24q-21 2 -39 -6zM307 367v2l-2 -2h2zM299 354l-18 4l-93 -32q51 -6 93 -43 q-2 38 18 71zM330 186q-8 29 -29 56q9 -29 29 -56zM131 307q-70 -27 -70 -104q0 -41 21 -78l221 78q-16 29 -20 59q-51 51 -115 51q-16 0 -37 -8v2zM90 113q55 -82 139 -82q47 0 78 31.5t31 78.5q0 8 -2 17q-14 16 -27 32zM350 145q4 -51 -31 -88l132 45q-56 4 -101 43z M463 117q47 0 76.5 30.5t29.5 77.5q0 41 -22 78l-219 -78q16 -29 20 -59q49 -49 115 -49zM541 315q-43 63 -109 80l-113 -41v-4l-6 2q-20 -27 -20 -65q0 -8 2 -19q14 -14 24 -30zM430 408l92 32l-196 43l-4 -96q74 25 77 25q17 0 31 -4z" />
<glyph unicode="&#x22;" horiz-adv-x="1392" d="M909 1040l449 -120l-363 -234l133 -559l-12 -6l-260 313l92 -393l-10 -6l-334 399l-190 -125l2 -6q-88 -37 -193 -90l6 18l-2 2h2l136 488l-359 438l176 80l-4 4l10 -2h2l297 -78l109 375l2 -8l172 78l4 16zM739 950l416 -112l168 77l-414 111zM829 487l-28 119l344 221 l-424 115l-59 250l-23 -82h-2v-2l-176 -78l-2 -6l-101 25l201 -238l-4 -10l-119 -430l152 100q76 31 180 88zM672 496l-74 -35l8 -8zM467 1047l154 69l-125 31zM729 961l168 75l-123 535l-104 -352zM766 1591l-166 -73l64 -273zM594 1485l-94 -324l129 -35l26 93zM483 1151 l-266 70l127 -154l107 -27zM193 1229l-173 -78l302 -78zM37 1133l336 -402l170 78l-207 246zM379 721l-133 -475l172 112l121 435zM414 338l-109 -70l101 45zM426 332l170 112l-8 11l-158 -105zM930 66l-94 391l-68 82q-10 -4 -154 -97zM1108 152l-123 522l-168 -76l31 -135 zM979 692l276 178l-81 -36l4 -3l-293 -188l96 45zM944 35l184 82l5 -13l-185 -81z" />
<glyph unicode="#" horiz-adv-x="1400" d="M917 1040l449 -120l-363 -234l133 -559l-12 -6l-260 313l92 -393l-10 -6l-334 399l-190 -125l2 -6q-88 -37 -193 -90l6 18l-2 2h2l136 488l-359 438l176 80l-4 4l10 -2h2l297 -78l109 375l2 -8l172 78l4 16zM747 950l416 -112l168 77l-414 111zM837 487l-28 119l344 221 l-424 115l-59 250l-23 -82h-2v-2l-176 -78l-2 -6l-101 25l201 -238l-4 -10l-119 -430l152 100q76 31 180 88zM680 496l-74 -35l8 -8zM475 1047l154 69l-125 31zM737 961l168 75l-123 535l-104 -352zM774 1591l-166 -73l64 -273zM602 1485l-94 -324l129 -35l26 93zM491 1151 l-266 70l127 -154l107 -27zM201 1229l-173 -78l302 -78zM45 1133l336 -402l170 78l-207 246zM387 721l-133 -475l172 112l121 435zM422 338l-109 -70l101 45zM434 332l170 112l-8 11l-158 -105zM938 66l-94 391l-68 82q-10 -4 -154 -97zM1116 152l-123 522l-168 -76l31 -135 zM987 692l276 178l-81 -36l4 -3l-293 -188l96 45zM952 35l184 82l5 -13l-185 -81z" />
<glyph unicode="$" horiz-adv-x="980" d="M897 985l-139 -61q139 -86 139 -256v-201q0 -133 -109 -191v0l-129 -57v-106l-4 2v-2l-182 -82v-4l-217 47v141q-100 31 -170 119t-70 192v121h2v2l154 68q-68 33 -112 100.5t-44 140.5v230q0 137 119 192v0l121 56v90l2 -2v2l182 84v2l219 -47v-127q100 -31 169 -118 t69 -192v-143zM885 1128q0 115 -78 197l-174 -78q80 -84 80 -209l172 -37v127zM713 930v-15l14 9q-8 4 -14 6zM520 1229q-14 -4 -14 -39v-23l82 39q-14 29 -51 29q-10 0 -17 -4v-2zM596 1057v110q0 12 -4 27l-86 -41v-137zM418 1114q6 -16 6 -135l68 31v139zM492 1161 q0 45 4 58l-129 -58q31 -2 47 -35zM410 963v116q0 70 -60 70q-31 0 -31 -47v-195l113 51zM436 971l17 -2l39 16v12zM502 975l-27 -12l223 -48v19q-30 6 -196 41zM506 987q76 -12 192 -41v82l-94 19l-98 -46v-14zM608 1061l90 -21q0 102 -68.5 188.5t-168.5 112.5v127h-10v-2 l-183 -82v-2q-10 2 -22 2q-29 -47 -29 -110v-230q0 -84 55.5 -155.5t135.5 -87.5l200 -43v-226q0 -45 -20 -53l2 -2l-184 -82q-10 -8 -27 -8q-74 0 -74 82v104l-88 19v-74q0 -39 23 -57l51 -41q72 -84 164 -109v-141h6v14h2v2l182 82v2q12 -2 23 -2q31 47 30 113v201 q0 90 -53 168.5t-137 97.5l-203 43v211q0 45 27 57v0l178 80q4 10 27 10q72 0 71 -84v-104zM600 207q20 8 45 33v14l-162 -72q10 -2 21 -2q53 0 96 25v2zM268 94l172 78v121l-172 -78v-121zM319 573v-104q0 -29 13 -45l-2 4l80 35v151zM504 506q-12 18 -12 145l-68 -30v-152 zM410 449l-72 -33q16 -14 41 -15q31 0 31 43v5zM424 455q0 -27 -4 -39l131 59q-20 0 -39 21zM565 485q31 0 31 47v209l-137 -61l47 -10v-115q0 -70 59 -70zM479 662l-41 8l-14 -6v-29zM416 674v0l-199 43q2 -2 199 -43zM410 662q-74 12 -193 40v-96l94 -20l99 43v33z M268 1413v-14l160 71l-16 3q-85 -1 -144 -60zM645 1544l-172 -78v-108l172 78v108zM797 1335q-61 66 -144 90l-170 -77q80 -25 140 -91zM637 1554l-182 39v-110l14 -4zM440 1595l-164 -75l164 -35v110zM268 1509v-67q37 18 119 41zM256 1421l-51 -22h35q8 10 16 18v4z M31 1188v-230q0 -61 30 -116l175 80q-33 57 -33 122v230q0 63 28 112h-6q-86 0 -140 -56t-54 -142zM68 831q47 -78 120 -106l15 6v2l233 -49l148 66l-178 38q-102 23 -164 121zM188 711l-151 -68l166 -35v99q-7 2 -15 4zM31 526q0 -100 67.5 -186t163.5 -113l172 76 q-84 29 -153 107q-27 23 -52.5 48t-25.5 60v76l-172 37v-105zM276 84l185 -39v111l-15 4zM473 45l164 74l-164 35v-109zM645 129v84q-90 -45 -139 -45q-16 0 -33 2v-4zM659 231l48 23q-14 -2 -33 0q-6 -10 -15 -18v-5zM885 668q0 92 -56 168l-174 -78q57 -80 58 -176v-201 q0 -66 -29 -115h6q88 0 141.5 56.5t53.5 144.5v201zM823 846q-37 47 -80 69l-28 -12l-2 6v-10l-260 55l-121 -55l178 -37q80 -16 137 -94zM743 930l131 59l-161 35v-80q14 -6 30 -14z" />
<glyph unicode="%" horiz-adv-x="1400" d="M917 1040l449 -120l-363 -234l133 -559l-12 -6l-260 313l92 -393l-10 -6l-334 399l-190 -125l2 -6q-88 -37 -193 -90l6 18l-2 2h2l136 488l-359 438l176 80l-4 4l10 -2h2l297 -78l109 375l2 -8l172 78l4 16zM747 950l416 -112l168 77l-414 111zM837 487l-28 119l344 221 l-424 115l-59 250l-23 -82h-2v-2l-176 -78l-2 -6l-101 25l201 -238l-4 -10l-119 -430l152 100q76 31 180 88zM680 496l-74 -35l8 -8zM475 1047l154 69l-125 31zM737 961l168 75l-123 535l-104 -352zM774 1591l-166 -73l64 -273zM602 1485l-94 -324l129 -35l26 93zM491 1151 l-266 70l127 -154l107 -27zM201 1229l-173 -78l302 -78zM45 1133l336 -402l170 78l-207 246zM387 721l-133 -475l172 112l121 435zM422 338l-109 -70l101 45zM434 332l170 112l-8 11l-158 -105zM938 66l-94 391l-68 82q-10 -4 -154 -97zM1116 152l-123 522l-168 -76l31 -135 zM987 692l276 178l-81 -36l4 -3l-293 -188l96 45zM952 35l184 82l5 -13l-185 -81z" />
<glyph unicode="&#x26;" horiz-adv-x="1400" d="M917 1040l449 -120l-363 -234l133 -559l-12 -6l-260 313l92 -393l-10 -6l-334 399l-190 -125l2 -6q-88 -37 -193 -90l6 18l-2 2h2l136 488l-359 438l176 80l-4 4l10 -2h2l297 -78l109 375l2 -8l172 78l4 16zM747 950l416 -112l168 77l-414 111zM837 487l-28 119l344 221 l-424 115l-59 250l-23 -82h-2v-2l-176 -78l-2 -6l-101 25l201 -238l-4 -10l-119 -430l152 100q76 31 180 88zM680 496l-74 -35l8 -8zM475 1047l154 69l-125 31zM737 961l168 75l-123 535l-104 -352zM774 1591l-166 -73l64 -273zM602 1485l-94 -324l129 -35l26 93zM491 1151 l-266 70l127 -154l107 -27zM201 1229l-173 -78l302 -78zM45 1133l336 -402l170 78l-207 246zM387 721l-133 -475l172 112l121 435zM422 338l-109 -70l101 45zM434 332l170 112l-8 11l-158 -105zM938 66l-94 391l-68 82q-10 -4 -154 -97zM1116 152l-123 522l-168 -76l31 -135 zM987 692l276 178l-81 -36l4 -3l-293 -188l96 45zM952 35l184 82l5 -13l-185 -81z" />
<glyph unicode="'" horiz-adv-x="1400" d="M917 1040l449 -120l-363 -234l133 -559l-12 -6l-260 313l92 -393l-10 -6l-334 399l-190 -125l2 -6q-88 -37 -193 -90l6 18l-2 2h2l136 488l-359 438l176 80l-4 4l10 -2h2l297 -78l109 375l2 -8l172 78l4 16zM747 950l416 -112l168 77l-414 111zM837 487l-28 119l344 221 l-424 115l-59 250l-23 -82h-2v-2l-176 -78l-2 -6l-101 25l201 -238l-4 -10l-119 -430l152 100q76 31 180 88zM680 496l-74 -35l8 -8zM475 1047l154 69l-125 31zM737 961l168 75l-123 535l-104 -352zM774 1591l-166 -73l64 -273zM602 1485l-94 -324l129 -35l26 93zM491 1151 l-266 70l127 -154l107 -27zM201 1229l-173 -78l302 -78zM45 1133l336 -402l170 78l-207 246zM387 721l-133 -475l172 112l121 435zM422 338l-109 -70l101 45zM434 332l170 112l-8 11l-158 -105zM938 66l-94 391l-68 82q-10 -4 -154 -97zM1116 152l-123 522l-168 -76l31 -135 zM987 692l276 178l-81 -36l4 -3l-293 -188l96 45zM952 35l184 82l5 -13l-185 -81z" />
<glyph unicode="(" horiz-adv-x="1400" d="M917 1040l449 -120l-363 -234l133 -559l-12 -6l-260 313l92 -393l-10 -6l-334 399l-190 -125l2 -6q-88 -37 -193 -90l6 18l-2 2h2l136 488l-359 438l176 80l-4 4l10 -2h2l297 -78l109 375l2 -8l172 78l4 16zM747 950l416 -112l168 77l-414 111zM837 487l-28 119l344 221 l-424 115l-59 250l-23 -82h-2v-2l-176 -78l-2 -6l-101 25l201 -238l-4 -10l-119 -430l152 100q76 31 180 88zM680 496l-74 -35l8 -8zM475 1047l154 69l-125 31zM737 961l168 75l-123 535l-104 -352zM774 1591l-166 -73l64 -273zM602 1485l-94 -324l129 -35l26 93zM491 1151 l-266 70l127 -154l107 -27zM201 1229l-173 -78l302 -78zM45 1133l336 -402l170 78l-207 246zM387 721l-133 -475l172 112l121 435zM422 338l-109 -70l101 45zM434 332l170 112l-8 11l-158 -105zM938 66l-94 391l-68 82q-10 -4 -154 -97zM1116 152l-123 522l-168 -76l31 -135 zM987 692l276 178l-81 -36l4 -3l-293 -188l96 45zM952 35l184 82l5 -13l-185 -81z" />
<glyph unicode=")" horiz-adv-x="1400" d="M917 1040l449 -120l-363 -234l133 -559l-12 -6l-260 313l92 -393l-10 -6l-334 399l-190 -125l2 -6q-88 -37 -193 -90l6 18l-2 2h2l136 488l-359 438l176 80l-4 4l10 -2h2l297 -78l109 375l2 -8l172 78l4 16zM747 950l416 -112l168 77l-414 111zM837 487l-28 119l344 221 l-424 115l-59 250l-23 -82h-2v-2l-176 -78l-2 -6l-101 25l201 -238l-4 -10l-119 -430l152 100q76 31 180 88zM680 496l-74 -35l8 -8zM475 1047l154 69l-125 31zM737 961l168 75l-123 535l-104 -352zM774 1591l-166 -73l64 -273zM602 1485l-94 -324l129 -35l26 93zM491 1151 l-266 70l127 -154l107 -27zM201 1229l-173 -78l302 -78zM45 1133l336 -402l170 78l-207 246zM387 721l-133 -475l172 112l121 435zM422 338l-109 -70l101 45zM434 332l170 112l-8 11l-158 -105zM938 66l-94 391l-68 82q-10 -4 -154 -97zM1116 152l-123 522l-168 -76l31 -135 zM987 692l276 178l-81 -36l4 -3l-293 -188l96 45zM952 35l184 82l5 -13l-185 -81z" />
<glyph unicode="*" horiz-adv-x="1400" d="M917 1040l449 -120l-363 -234l133 -559l-12 -6l-260 313l92 -393l-10 -6l-334 399l-190 -125l2 -6q-88 -37 -193 -90l6 18l-2 2h2l136 488l-359 438l176 80l-4 4l10 -2h2l297 -78l109 375l2 -8l172 78l4 16zM747 950l416 -112l168 77l-414 111zM837 487l-28 119l344 221 l-424 115l-59 250l-23 -82h-2v-2l-176 -78l-2 -6l-101 25l201 -238l-4 -10l-119 -430l152 100q76 31 180 88zM680 496l-74 -35l8 -8zM475 1047l154 69l-125 31zM737 961l168 75l-123 535l-104 -352zM774 1591l-166 -73l64 -273zM602 1485l-94 -324l129 -35l26 93zM491 1151 l-266 70l127 -154l107 -27zM201 1229l-173 -78l302 -78zM45 1133l336 -402l170 78l-207 246zM387 721l-133 -475l172 112l121 435zM422 338l-109 -70l101 45zM434 332l170 112l-8 11l-158 -105zM938 66l-94 391l-68 82q-10 -4 -154 -97zM1116 152l-123 522l-168 -76l31 -135 zM987 692l276 178l-81 -36l4 -3l-293 -188l96 45zM952 35l184 82l5 -13l-185 -81z" />
<glyph unicode="+" horiz-adv-x="1400" d="M917 1040l449 -120l-363 -234l133 -559l-12 -6l-260 313l92 -393l-10 -6l-334 399l-190 -125l2 -6q-88 -37 -193 -90l6 18l-2 2h2l136 488l-359 438l176 80l-4 4l10 -2h2l297 -78l109 375l2 -8l172 78l4 16zM747 950l416 -112l168 77l-414 111zM837 487l-28 119l344 221 l-424 115l-59 250l-23 -82h-2v-2l-176 -78l-2 -6l-101 25l201 -238l-4 -10l-119 -430l152 100q76 31 180 88zM680 496l-74 -35l8 -8zM475 1047l154 69l-125 31zM737 961l168 75l-123 535l-104 -352zM774 1591l-166 -73l64 -273zM602 1485l-94 -324l129 -35l26 93zM491 1151 l-266 70l127 -154l107 -27zM201 1229l-173 -78l302 -78zM45 1133l336 -402l170 78l-207 246zM387 721l-133 -475l172 112l121 435zM422 338l-109 -70l101 45zM434 332l170 112l-8 11l-158 -105zM938 66l-94 391l-68 82q-10 -4 -154 -97zM1116 152l-123 522l-168 -76l31 -135 zM987 692l276 178l-81 -36l4 -3l-293 -188l96 45zM952 35l184 82l5 -13l-185 -81z" />
<glyph unicode="," horiz-adv-x="1400" d="M917 1040l449 -120l-363 -234l133 -559l-12 -6l-260 313l92 -393l-10 -6l-334 399l-190 -125l2 -6q-88 -37 -193 -90l6 18l-2 2h2l136 488l-359 438l176 80l-4 4l10 -2h2l297 -78l109 375l2 -8l172 78l4 16zM747 950l416 -112l168 77l-414 111zM837 487l-28 119l344 221 l-424 115l-59 250l-23 -82h-2v-2l-176 -78l-2 -6l-101 25l201 -238l-4 -10l-119 -430l152 100q76 31 180 88zM680 496l-74 -35l8 -8zM475 1047l154 69l-125 31zM737 961l168 75l-123 535l-104 -352zM774 1591l-166 -73l64 -273zM602 1485l-94 -324l129 -35l26 93zM491 1151 l-266 70l127 -154l107 -27zM201 1229l-173 -78l302 -78zM45 1133l336 -402l170 78l-207 246zM387 721l-133 -475l172 112l121 435zM422 338l-109 -70l101 45zM434 332l170 112l-8 11l-158 -105zM938 66l-94 391l-68 82q-10 -4 -154 -97zM1116 152l-123 522l-168 -76l31 -135 zM987 692l276 178l-81 -36l4 -3l-293 -188l96 45zM952 35l184 82l5 -13l-185 -81z" />
<glyph unicode="-" horiz-adv-x="1400" d="M917 1040l449 -120l-363 -234l133 -559l-12 -6l-260 313l92 -393l-10 -6l-334 399l-190 -125l2 -6q-88 -37 -193 -90l6 18l-2 2h2l136 488l-359 438l176 80l-4 4l10 -2h2l297 -78l109 375l2 -8l172 78l4 16zM747 950l416 -112l168 77l-414 111zM837 487l-28 119l344 221 l-424 115l-59 250l-23 -82h-2v-2l-176 -78l-2 -6l-101 25l201 -238l-4 -10l-119 -430l152 100q76 31 180 88zM680 496l-74 -35l8 -8zM475 1047l154 69l-125 31zM737 961l168 75l-123 535l-104 -352zM774 1591l-166 -73l64 -273zM602 1485l-94 -324l129 -35l26 93zM491 1151 l-266 70l127 -154l107 -27zM201 1229l-173 -78l302 -78zM45 1133l336 -402l170 78l-207 246zM387 721l-133 -475l172 112l121 435zM422 338l-109 -70l101 45zM434 332l170 112l-8 11l-158 -105zM938 66l-94 391l-68 82q-10 -4 -154 -97zM1116 152l-123 522l-168 -76l31 -135 zM987 692l276 178l-81 -36l4 -3l-293 -188l96 45zM952 35l184 82l5 -13l-185 -81z" />
<glyph unicode="." horiz-adv-x="643" d="M373 451q72 0 127 -58.5t55 -130.5q0 -80 -72 -110l2 -5l-233 -81q-23 -10 -49 -11q-72 0 -127.5 56.5t-55.5 128.5q0 63 46 98q12 10 53 24l186 68q58 21 68 21zM512 354q-55 82 -139 82q-20 0 -37 -6l2 -4l-27 -8q-45 -14 -45 -94q0 -6 2 -17q12 -14 25 -31zM274 279 q8 -29 29 -56q-11 29 -29 56zM254 319q-4 49 27 87l-119 -44q49 -6 92 -43zM102 344q-68 -27 -67 -104q0 -41 20 -78l221 78q-16 29 -22 61q-49 51 -113 51q-16 0 -37 -8h-2zM63 152q53 -82 140 -82q47 0 76.5 30.5t29.5 77.5v19q-14 14 -26 32zM324 182q4 -51 -31 -88 l131 47q-55 4 -100 41zM434 154q47 0 78 30.5t31 77.5q0 41 -23 80l-221 -78q18 -29 23 -61q49 -49 112 -49z" />
<glyph unicode="/" horiz-adv-x="1400" d="M917 1040l449 -120l-363 -234l133 -559l-12 -6l-260 313l92 -393l-10 -6l-334 399l-190 -125l2 -6q-88 -37 -193 -90l6 18l-2 2h2l136 488l-359 438l176 80l-4 4l10 -2h2l297 -78l109 375l2 -8l172 78l4 16zM747 950l416 -112l168 77l-414 111zM837 487l-28 119l344 221 l-424 115l-59 250l-23 -82h-2v-2l-176 -78l-2 -6l-101 25l201 -238l-4 -10l-119 -430l152 100q76 31 180 88zM680 496l-74 -35l8 -8zM475 1047l154 69l-125 31zM737 961l168 75l-123 535l-104 -352zM774 1591l-166 -73l64 -273zM602 1485l-94 -324l129 -35l26 93zM491 1151 l-266 70l127 -154l107 -27zM201 1229l-173 -78l302 -78zM45 1133l336 -402l170 78l-207 246zM387 721l-133 -475l172 112l121 435zM422 338l-109 -70l101 45zM434 332l170 112l-8 11l-158 -105zM938 66l-94 391l-68 82q-10 -4 -154 -97zM1116 152l-123 522l-168 -76l31 -135 zM987 692l276 178l-81 -36l4 -3l-293 -188l96 45zM952 35l184 82l5 -13l-185 -81z" />
<glyph unicode="0" horiz-adv-x="1026" d="M897 1343q35 -63 35 -135v-866q0 -141 -123 -195v-4l-231 -82v2q-37 -14 -78 -14q-25 0 -54 6l-167 35q-106 23 -182.5 114t-76.5 199v867q0 164 148 207v0l192 67q63 23 91 23q27 0 55 -6l168 -37q143 -31 223 -181zM848 1399q-53 74 -156 106q-2 0 -188 41q-29 6 -51 6 q-27 0 -50 -6v0q-74 -25 -106 -71q164 -35 186 -43q96 -33 152 -109zM664 152q29 45 28 108v866q0 104 -71.5 193.5t-174.5 110.5l-157 32q-29 -47 -29 -110v-867q0 -84 49 -159q-2 12 -2 24v834q0 55 35 61h-2q78 27 231 84l2 -2q72 4 72 -82v-835q0 -35 -14 -52v-2 l-228 -80q-8 -10 -26 -10q-10 0 -25 6q57 -59 144 -86q27 -3 168 -34zM319 1188v-842q0 -16 7 -31l82 29v821q0 23 -9 39l-2 -2l-4 12q-16 18 -43 19q-31 0 -31 -45zM575 1313q-29 0 -30 -43l73 24q-16 19 -43 19zM602 362q31 0 31 46v839q0 20 -8 37l-80 -29v-827 q0 -66 57 -66zM395 287q12 12 13 41v2l-76 -27q14 -23 45 -22q14 0 18 6zM420 336q0 -29 -4 -41l164 57q-23 8 -35 27zM420 350l119 41q-6 16 -7 39v821l-120 -43q8 -18 8 -45v-813zM532 1266q0 23 7 37l-168 -60q23 -6 35 -24zM315 1516l-86 -31q27 0 54 -6q14 21 32 37z M35 403q0 -96 65 -182l213 76q-68 88 -67 188v867q0 66 28 114q-25 4 -49 4q-86 0 -138 -57t-52 -143v-867zM109 211q76 -88 172 -109l168 -34q29 -6 53 -7q96 0 153 78q-170 37 -184 41q-88 29 -149 107zM631 94l102 37q-35 -2 -63 6q-16 -25 -39 -43zM918 342v866 q0 96 -62 181l-213 -76q63 -88 64 -187v-866q0 -63 -29 -113q25 -4 49 -4q84 0 137.5 57.5t53.5 141.5z" />
<glyph unicode="1" horiz-adv-x="708" d="M266 1536v-2l330 -25v-1384l-234 -84v2l-260 55v1219l-69 14v121l231 82v2h2zM264 1520l-198 -70l198 -16v86zM365 1415v-1227l217 -47v1352zM352 190v1223l-28 4l24 -6v-1218zM117 115l217 78v1202l-217 -78v-1202zM246 1421l-201 17v-86zM57 1341l52 -12l208 74l-51 12 zM129 106l223 -47v119l-14 2zM365 55l208 76l-208 43v-119zM561 1499l-285 23v-88l82 -7z" />
<glyph unicode="2" horiz-adv-x="1052" d="M965 305v-209l-232 -80v-2h-2l-713 152v389q0 145 109 190l-2 3l227 79q27 10 60 15v170l-90 -33v-2l-304 65v250q0 160 148 205l-2 2l233 84v-2q29 8 60 8q25 0 55 -6l170 -35q106 -23 184 -116t78 -201v-504q0 -133 -110 -172v-2l-220 -78q-35 -12 -63 -12v-70z M262 260l459 -98v49l-414 88l2 225l228 80v2h6l145 -31q12 31 12 68v504q0 106 -72.5 193t-176.5 110l-160 35q-29 -47 -29 -109v-239l45 -11q0 115 17 129v2l231 82q6 10 27 11q74 0 73 -84v-480q-2 -2 -4 -2l2 -2l-241 -86q-27 0 -136 29q-14 -39 -14 -86v-379zM537 1077 v185l-117 -43q6 -16 6 -117zM526 1067l-100 20v-57zM352 1251q-31 0 -30 -43v-84l90 -20v78q-1 69 -60 69zM414 1231l123 45q0 33 6 45l-170 -59q29 -8 41 -31zM551 1290v-10l80 29q-16 27 -49 26q-31 0 -31 -45zM426 827v-112l190 69q-69 20 -190 43zM727 223l209 74 l-391 84l-209 -74zM537 477v113l-203 -72l178 -39q11 -2 25 -2zM537 393v70q-10 2 -29 4l-186 39v-191zM733 211v-51l217 -45v174zM551 590v-115q25 0 45 8v0q59 20 88 80zM696 559q-12 -31 -37 -53l115 41q-21 0 -78 12zM930 727v504q0 96 -66 182l-217 -78q68 -88 68 -188 v-504q0 -39 -13 -72q57 -12 78 -12q68 0 109 49t41 119zM856 1423q-72 88 -176 111l-170 37q-29 6 -53 6q-100 0 -158 -80q166 -37 186 -43q100 -33 152 -106zM322 1542l-101 -37q33 0 64 -6q14 25 37 43zM227 1493q-86 0 -140 -57.5t-54 -143.5v-235l215 76v243 q0 63 28 111q-26 6 -49 6zM51 1049l256 -56v121l-47 8zM322 993l90 33v66l-90 18v-117zM553 1061l-127 -45v-174q27 -2 111 -27q74 -23 104 -20v471q0 18 -4 30l-86 -30v-197q0 -2 2 -8zM412 711v116q-25 0 -47 -8v-2q-51 -14 -82 -80q109 -26 129 -26zM268 741q18 39 41 58 l-116 -41q20 -3 75 -17zM184 745q-72 0 -114 -61q-37 -53 -37 -129v-373l215 76v381q0 49 16 90q-60 16 -80 16zM49 174l672 -143v119l-463 98zM733 145v-114l207 71z" />
<glyph unicode="3" horiz-adv-x="1042" d="M885 1393q2 -4 43 -90q23 -47 22 -99v-182q0 -139 -112 -193v-2l-70 -26q80 -41 131 -117t51 -164v-182q0 -135 -116 -191v-2l-226 -79q-63 -23 -102 -23q-29 0 -57 6l-166 35q-109 23 -184.5 114t-75.5 201v222l229 81v3l39 -9v189h4l-2 2l119 41v90l-88 -31v-2h-5 l-296 64v217q0 147 131 198l-2 2l215 76q63 23 94 23q25 0 225 -43q119 -27 197 -129h2zM870 1386q-78 100 -188 123l-168 35q-29 6 -53 6q-37 0 -72 -12l2 -2q-53 -16 -90 -66q88 -18 195 -45q92 -33 155 -116zM721 807l-55 -19l-13 -12l80 27zM600 756q12 4 33 20l-86 -31 l14 -2q21 5 39 13zM707 436q0 84 -52 160v-182q0 -41 -16 -58v-2l-231 -82q-8 -10 -27 -10q-10 0 -16 2q63 -63 151 -82l162 -35q29 45 29 105v184zM266 483q0 -78 45 -151v213l-45 10v-72zM412 578l-88 -31v-205q0 -20 8 -37l80 29v244zM303 680v-8l14 4zM342 672l-29 -10 q37 -6 49 -11q29 -6 44 -20l49 16zM489 723l-122 -43l112 -25l84 31q-35 25 -74 37zM610 360q31 0 31 50v204q-29 35 -63 64l-74 -27l51 -10v-211q0 -27 8 -43v0q6 -27 47 -27zM340 293q16 -16 41 -17q27 0 31 43zM424 324q0 -20 -4 -33l170 59q-20 6 -31 21zM479 643 l-65 -25q6 -10 8 -22l104 37zM541 623l-117 -41v-244l127 45q-10 18 -10 47v193zM641 653q0 27 -8 43l-41 -14q27 -20 49 -47v18zM580 692l45 17q-12 10 -64 20q-18 -4 -39 -4q29 -15 58 -33zM535 756l122 45q49 53 50 137v182q0 86 -54 164q2 -12 2 -22v-263q0 -47 -20 -55 v-2l-100 -37v-149zM424 920q0 -27 -4 -41l100 36v37zM535 920l57 20l-57 12v-32zM541 1085v181l-125 -45q8 -18 8 -111zM530 1075l-106 23v-62zM266 1145l45 -10q0 76 -2 65q4 45 27 55v0l223 80q6 8 27 8q10 0 20 -4q-63 63 -145 82q-4 2 -168 37q-27 -47 -27 -108v-205z M324 1198v-65l88 -19v62q0 70 -58 69q-30 0 -30 -47zM410 1233l131 47q0 23 6 37l-170 -62q21 -6 33 -22zM565 1323q-10 -10 -10 -39l74 27q-16 20 -43 20q-8 0 -13 -4v-2zM322 1511l-93 -32q33 0 58 -6q15 22 35 38zM229 1466q-86 0 -140 -57t-54 -143v-199l217 78v205 q0 63 29 110q-27 6 -52 6zM47 1057l264 -56v121l-53 11zM324 1001l88 31v68l-88 18v-117zM424 1022v-88l96 33v2h6q82 -18 86 -19q29 0 29 47v267q0 20 -6 34l-80 -28v-201h-2zM412 913l-97 -32q61 -14 66 -15q31 0 31 47zM303 868v-174l37 -8l145 51v2h2l33 13v149 l-117 -41q-16 -6 -22 -6t-78 14zM291 682l-25 6v-121l49 -10l95 33q-8 39 -43 47l-76 16v29zM252 688l-205 -74l205 -43v117zM35 604v-205q0 -78 45 -149l217 78q-33 55 -41 110q-4 29 -4 119zM86 238q78 -117 199 -142l166 -35q29 -6 55 -6q49 0 90 21v0q39 10 74 59 q-174 37 -207 49q-94 37 -158 131zM653 96l86 31q-27 0 -53 6q-15 -21 -33 -37zM938 338v182q0 70 -35 131l-219 -78q37 -66 37 -137v-184q0 -61 -29 -107q25 -4 45 -4q86 0 143.5 55.5t57.5 141.5zM897 664q-55 88 -147 133q-53 -20 -160 -60q33 -8 47 -24h2v-2 q16 -27 16 -58v-35q12 -16 23 -32zM938 1022v182q0 90 -59 172l-220 -78q61 -84 62 -178v-182q0 -76 -39 -129l33 12l2 2q96 -10 158.5 46.5t62.5 152.5z" />
<glyph unicode="4" horiz-adv-x="1124" d="M1038 371l-84 -31v-238l-233 -84v2l-260 56v286l-459 97l4 12v2l338 1018h2l225 82v2h7l2 -2l374 -82v-883l84 -18v-219zM954 354l62 23l-62 12v-35zM240 541l-209 -74l432 -92l209 74zM473 365v-273l215 78v270zM702 172l11 -2v152l84 30v144l-84 16v885l-174 37 l-291 -881l454 -96v-285zM946 406l78 -19v184l-215 -77v-138l131 47v3h6zM805 506l209 76l-68 14l-209 -76zM725 530l215 78v867l-215 -76v-869zM717 1409l209 76l-344 76l-37 -113zM797 338l-60 -21l60 -14v35zM809 342v-39l131 47v39zM565 1556l-196 -69l161 -37z M352 1475l-329 -996l210 74l293 885zM487 84l226 -47v119l-15 2zM725 152v-117l209 74zM940 121v215l-131 -47v-2l-2 2l-2 -2v2l-80 16v-139zM709 1208v-563l-228 -80v-4l-4 2h-2l-170 37l162 526h2l231 84q2 0 2 -2h7zM549 694l147 -30v499zM537 694l153 498l-209 -76v-440 zM467 670v409l-143 -458zM330 608l137 -28v75zM481 662v-82l203 71l-143 31z" />
<glyph unicode="5" horiz-adv-x="1040" d="M557 1108l191 -41q90 -18 146 -103t56 -180v-469q0 -152 -135 -202v0l-233 -84v2q-35 -12 -74 -13q-33 0 -221 41q-109 23 -185.5 115t-76.5 203v219h2l227 80v2h4l158 -35v137l-391 84v645h2l227 80v2h4v-2l666 -141v-231l-6 2l-226 -80v-4l-135 28v-55zM872 967 q-53 70 -127 86l-198 43l-207 -74l176 -37q80 -16 139 -96zM676 121q29 47 29 112v469q0 84 -43 156v-477q0 -43 -23 -55v0q-78 -27 -233 -82v0q-10 -4 -21 -4q-12 0 -20 2q55 -57 143 -84q4 0 168 -37zM268 530v-71q0 -80 45 -152v215zM416 553l-90 -33v-201q0 -25 10 -40 l80 28v246zM344 266q16 -14 41 -14q29 0 31 41zM430 297q0 -20 -6 -33l170 60q-20 6 -33 20zM543 598l-113 -41v-246l123 45q-10 18 -10 47v195zM430 571l98 35l-98 21v-56zM422 795l207 71l-371 80l-205 -74zM909 1432l-217 -76v-76l217 -47v199zM678 1356l-410 88v-488 l381 -79q-45 78 -135 96l-201 43l2 213l232 82l131 -29v74zM543 1182v114l-201 -71zM254 958v488l-217 47v-612zM543 1110v57l-217 45v-180zM557 1178l121 -25v117l-121 24v-116zM692 1153l201 70l-201 43v-113zM895 1442l-627 133v-117l420 -90zM254 1575l-201 -72l201 -43 v115zM430 782v-141l127 -27v-211q0 -70 57 -69q33 0 33 47v479zM416 629l-148 33v-117l54 -13l94 35v62zM254 662l-203 -72l203 -43v115zM37 580v-203q0 -96 67 -182l218 77q-47 61 -60 123q-8 41 -8 137zM113 184q74 -88 176 -110l168 -37q18 -4 53 -4q98 0 158 78 q-154 33 -187 43q-98 33 -151 106zM641 66l100 34q-29 0 -59 6q-18 -24 -41 -40zM936 315v469q0 92 -55 170l-217 -75q55 -82 55 -177v-469q0 -66 -29 -114q25 -6 51 -6q86 0 140.5 58t54.5 144z" />
<glyph unicode="6" horiz-adv-x="1050" d="M469 1563q31 0 59 -7l166 -34q106 -23 184 -116t78 -202v-131h-2l-98 -35q100 -92 100 -227v-469q0 -143 -125 -197v0l-225 -82q-51 -18 -90 -18q-35 0 -223 41q-109 23 -185.5 115t-76.5 200v865q0 150 129 198v2l219 78q51 19 90 19zM856 1411q-72 78 -166 98l-166 35 q-29 6 -53 6q-39 0 -74 -14v0q-49 -16 -86 -66q158 -35 178 -40q86 -29 148 -97zM711 1124l-52 13l-41 -17l93 -18v22zM725 1085v-79l104 36q-36 29 -104 43zM711 727q0 82 -43 154v-473q0 -35 -15 -50v-2q-4 -2 -26 -10l-207 -74q-6 -10 -29 -10q-6 0 -14 2q57 -53 143 -78 q2 -2 164 -36q27 47 27 108v469zM362 860q-31 0 -30 -45v-473q0 -14 6 -29l84 31v447q-1 69 -60 69zM655 874q0 29 -10 37l-82 -28v-453q0 -59 47 -70q10 -2 15 0l18 7q12 10 12 41v466zM344 301q20 -25 47 -25q31 0 31 46v8zM436 334q0 -29 -4 -43l166 59q-25 8 -35 29z M436 348l121 43q-6 16 -6 39v449l-123 -43q8 -18 8 -45v-443zM551 893q0 23 4 37l-170 -60q23 -8 35 -24zM637 924q-18 20 -43 20q-8 0 -14 -4v-2h-5q-10 -12 -12 -41zM342 868v0l227 80q12 4 25 8h8q-37 29 -82 39l-201 43v162q0 47 27 57v0q242 86 248 86q12 0 16 -2 q-57 55 -141 82q-25 4 -166 35q-29 -47 -29 -104v-869q0 -78 45 -149v475q0 45 23 57zM655 1149v115q0 16 -6 30l-86 -30v-131l31 -7zM383 1255q27 -6 41 -26l127 45q0 31 6 43zM563 1286v-8l78 29q-18 23 -47 22h-10v-2q-21 -6 -21 -41zM332 1200v-143l90 33v88 q0 68 -60 67q-30 0 -30 -45zM430 1217q6 -16 6 -123l115 41v125zM553 1122l-117 -43v-8l133 47zM594 1112l-143 -51l260 -55v81zM668 1147l43 -8q-4 70 -43 131v-123zM332 1513l-92 -34q29 0 57 -6q15 22 35 40zM43 1266v-865q0 -68 35 -131l219 78q-35 66 -35 137v865 q0 63 27 110q-27 6 -51 6q-86 0 -140.5 -57t-54.5 -143zM84 258q76 -129 211 -158l168 -34q29 -6 53 -7q41 0 78 15v0q45 14 82 65q-176 37 -215 54q-98 41 -158 143zM655 96l93 33q-29 0 -58 6q-15 -21 -35 -39zM944 342v469q0 68 -31 129l-221 -78q33 -63 33 -135v-469 q0 -63 -27 -111q25 -4 50 -4q86 0 141 56.5t55 142.5zM905 952q-27 47 -63 80l-117 -41v-2l-303 64v22l-78 -28l180 -39q100 -23 162 -134zM846 1049l84 28l-205 45v-24q78 -16 121 -49zM944 1090v114q0 115 -80 197l-217 -78q72 -70 78 -186z" />
<glyph unicode="7" horiz-adv-x="1013" d="M950 1411l-409 -1300l-230 -80v-2h-4h-2l-299 63l336 1061l-340 72l-2 256h2v2l227 80v2h7v-2zM254 186l86 -18l365 1151l-461 96l2 -96l342 -72zM350 1165l209 74l-321 68l-209 -74zM14 1464l2 -221l215 76v100zM717 1317l-363 -1151l176 -39l400 1266zM922 1403 l-678 145v-118l469 -101zM229 1548l-204 -71l206 -45zM356 1153l-329 -1042l213 75l327 1043zM39 100l262 -55l35 111l-90 18zM315 47l201 70l-166 35z" />
<glyph unicode="8" horiz-adv-x="1050" d="M473 1526q27 0 221 -41q109 -23 185.5 -113t76.5 -201v-219q-12 -76 -67 -124t-131 -50q86 -39 142 -117.5t56 -171.5v-182q0 -70 -44 -128t-111 -79v0l-234 -84v2q-29 -8 -59 -8q-27 0 -55 6l-166 35q-106 23 -183 115t-77 201v219q10 76 64 124t130 52 q-86 37 -140 115.5t-54 171.5v180q0 68 39.5 124t103.5 79v2l233 82q33 10 70 10zM901 1317q-76 127 -209 156l-166 34q-29 6 -53 6q-96 0 -158 -77q172 -37 211 -54q98 -41 158 -143zM713 870v220q0 106 -74 192t-178 109l-156 32q-35 -51 -35 -112v-181q0 -82 45 -153v153 q0 47 23 58v0l233 82q8 4 19 4q72 0 72 -82v-209q0 -45 -23 -53l2 -2l-195 -70q20 -8 41 -14l-2 -10l2 -3q-2 0 -2 -2h-2l-161 -57q-51 -51 -52 -104v-219q0 -104 74 -192.5t176 -111.5l156 -32q37 49 37 112v183q0 86 -51 159v-174q0 -39 -19 -53q-6 -2 -25 -8l-204 -74 q-8 -8 -29 -8q-70 0 -70 82v211q0 49 35 61l195 70q-29 14 -58 22l2 13q-2 2 0 2l177 61q47 51 47 98zM639 750l-113 -41q72 4 113 41zM575 670q20 -14 37 -29l25 8q-16 25 -47 25q-11 0 -15 -4zM633 348q14 8 14 41v197q-16 23 -37 41l-51 -19v-196q0 -66 55 -68l17 6z M397 268l9 2q10 10 10 37l-72 -26q16 -18 41 -19q8 0 14 4zM348 590q-18 -10 -18 -43v-217q0 -20 8 -37l78 29v200q0 70 -58 70q-4 0 -10 -2zM567 659q-8 -12 -8 -30v-6l39 14q-15 12 -31 22zM547 618q0 29 6 44l-172 -60q25 -8 37 -31zM547 604l-123 -45q6 -16 6 -37v-196 l125 43q-8 18 -8 45v190zM430 311q0 -20 -4 -35l164 60q-18 6 -29 22zM625 631q12 -12 22 -25q0 18 -6 31zM352 799l88 30q-49 -5 -88 -30zM358 1180q-29 0 -28 -50v-172q16 -25 43 -49l43 17v184q-1 70 -58 70zM647 979v215q0 16 -4 31l-84 -31v-190q0 -68 57 -68 q31 0 31 43zM424 1147q6 -16 6 -37v-180l121 43q-4 14 -4 31v186zM559 1208l78 29q-16 25 -47 25t-31 -45v-9zM547 1204q0 31 6 45l-172 -59q27 -8 39 -31zM414 877q2 10 2 22v12l-33 -12q15 -10 31 -22zM358 905q-14 14 -28 31v-16q0 -12 2 -25zM371 895l-33 -12 q14 -29 47 -29q16 0 25 12q-21 13 -39 29zM426 870l4 -2l164 58q-27 8 -39 35l-125 -46q0 -33 -4 -45zM301 1438q16 25 39 41l-96 -35q26 0 57 -6zM41 1229v-180q0 -80 43 -150l217 76q-43 74 -43 155v181q0 63 35 114q-27 6 -51 7q-84 0 -142.5 -59.5t-58.5 -143.5zM92 887 q61 -92 162 -125l61 22q53 53 136 60l-21 10l-22 -8q-10 -6 -23 -6q-70 0 -70 114l-6 11zM256 748q-74 6 -132 -31t-79 -107l217 76q8 45 35 78l-41 -14v-2zM41 586v-219q0 -90 57 -170l217 75q-57 84 -57 177v223l-215 -76zM106 184q76 -98 183 -121l166 -34q29 -6 53 -6 q94 0 160 77q-164 35 -193 45q-90 33 -151 117zM682 98q-16 -23 -39 -41l94 35q-26 0 -55 6zM942 307v182q0 78 -43 148l-217 -78q43 -72 43 -151v-183q0 -63 -35 -116q25 -4 47 -5q84 0 144.5 59.5t60.5 143.5zM891 649q-66 94 -170 129l-49 -18q-57 -61 -146 -64 q16 -8 35 -18q23 8 29 8q72 0 72 -96q8 -10 12 -19zM748 791q113 0 167 92l-210 -76q-6 -14 -17 -27l35 13q13 -2 25 -2zM942 952v219q0 70 -35 134l-217 -78q35 -66 35 -137v-216q0 -18 -12 -51l213 76q16 35 16 53z" />
<glyph unicode="9" horiz-adv-x="1052" d="M471 1542q29 0 57 -6l166 -35q109 -23 185.5 -116t76.5 -203v-871q0 -164 -147 -207l2 -2l-233 -84l-3 2q-29 -8 -61 -8q-29 0 -223 41q-111 23 -186.5 115t-75.5 205v133l4 -2v2l98 35q-102 94 -102 229v473q0 156 137 205v0l233 84v-2q33 12 72 12zM881 1362 q-76 100 -189 125l-168 37q-29 6 -53 6q-102 0 -160 -80q164 -37 185 -43q74 -25 147 -102q4 -6 16 -21zM682 117q29 47 29 106v875q0 80 -43 149v-479q0 -43 -23 -55v0h-2l-6 -2q-258 -86 -248 -86h-4q37 -29 82 -39l201 -43v-164q0 -51 -37 -64l-217 -75q-10 -4 -25 -9 q-6 0 -14 2q55 -55 141 -81q4 -2 166 -35zM276 453l50 -11l47 17l-97 20v-26zM262 496v77l-104 -36q36 -27 104 -41zM623 330q33 0 32 45v151l-90 -32v-93q1 -71 58 -71zM408 250v2q12 10 14 37l-74 -27q12 -16 41 -16q11 0 19 4zM332 430v-117q0 -23 8 -39l82 29v146l-25 6 zM434 293q0 -20 -4 -35l170 61q-20 6 -33 21zM561 352q-10 20 -10 137l-117 -40v-142zM430 461l121 43v4l-129 -45zM397 467l138 49l-259 55v-77zM317 430l-41 8q4 -70 41 -133v125zM276 854q0 -80 41 -152v474q0 45 25 59v0l233 84v-2q8 6 21 6q6 0 14 -2q-57 55 -141 82 q-4 0 -166 35q-27 -47 -27 -111v-473zM623 721q33 0 32 45v473q0 20 -6 35l-84 -29v-454q1 -70 58 -70zM434 694q0 -29 -6 -43l174 60q-27 8 -39 28zM336 678l2 -4l84 31v448q0 72 -60 72q-31 0 -30 -45v-475q0 -15 4 -27zM641 1286q-18 23 -45 23q-31 0 -31 -49zM551 1253 q0 31 6 45l-174 -63q25 -6 39 -27zM428 1196q6 -18 6 -43v-444l123 43q-6 18 -6 39v448zM346 664q20 -25 43 -25q33 0 33 45v6zM336 1495l-100 -37q31 2 61 -6q16 25 39 43zM43 1243v-473q0 -82 45 -154l219 78q-45 74 -45 160v473q0 63 29 113q-29 6 -53 6 q-88 0 -141.5 -57.5t-53.5 -145.5zM94 604q23 -33 51 -57l117 41q2 2 4 2v-2l299 -64v-16l74 27l-174 38q-74 16 -109 60q-12 8 -41 49zM143 530l-88 -30l207 -43v26q-78 16 -119 47zM43 373q0 -117 76 -197l219 78q-70 76 -76 188l-219 47v-116zM127 164q72 -78 168 -98 l166 -35q29 -6 53 -6q102 0 160 79q-158 35 -178 41q-88 29 -148 99zM647 57l105 37q-31 0 -64 8q-16 -25 -41 -45zM944 311v871q0 90 -55 168l-221 -78q55 -82 55 -174v-871q0 -63 -27 -112q27 -6 52 -6q86 0 141 58t55 144z" />
<glyph unicode=":" horiz-adv-x="1400" d="M917 1040l449 -120l-363 -234l133 -559l-12 -6l-260 313l92 -393l-10 -6l-334 399l-190 -125l2 -6q-88 -37 -193 -90l6 18l-2 2h2l136 488l-359 438l176 80l-4 4l10 -2h2l297 -78l109 375l2 -8l172 78l4 16zM747 950l416 -112l168 77l-414 111zM837 487l-28 119l344 221 l-424 115l-59 250l-23 -82h-2v-2l-176 -78l-2 -6l-101 25l201 -238l-4 -10l-119 -430l152 100q76 31 180 88zM680 496l-74 -35l8 -8zM475 1047l154 69l-125 31zM737 961l168 75l-123 535l-104 -352zM774 1591l-166 -73l64 -273zM602 1485l-94 -324l129 -35l26 93zM491 1151 l-266 70l127 -154l107 -27zM201 1229l-173 -78l302 -78zM45 1133l336 -402l170 78l-207 246zM387 721l-133 -475l172 112l121 435zM422 338l-109 -70l101 45zM434 332l170 112l-8 11l-158 -105zM938 66l-94 391l-68 82q-10 -4 -154 -97zM1116 152l-123 522l-168 -76l31 -135 zM987 692l276 178l-81 -36l4 -3l-293 -188l96 45zM952 35l184 82l5 -13l-185 -81z" />
<glyph unicode=";" horiz-adv-x="1400" d="M917 1040l449 -120l-363 -234l133 -559l-12 -6l-260 313l92 -393l-10 -6l-334 399l-190 -125l2 -6q-88 -37 -193 -90l6 18l-2 2h2l136 488l-359 438l176 80l-4 4l10 -2h2l297 -78l109 375l2 -8l172 78l4 16zM747 950l416 -112l168 77l-414 111zM837 487l-28 119l344 221 l-424 115l-59 250l-23 -82h-2v-2l-176 -78l-2 -6l-101 25l201 -238l-4 -10l-119 -430l152 100q76 31 180 88zM680 496l-74 -35l8 -8zM475 1047l154 69l-125 31zM737 961l168 75l-123 535l-104 -352zM774 1591l-166 -73l64 -273zM602 1485l-94 -324l129 -35l26 93zM491 1151 l-266 70l127 -154l107 -27zM201 1229l-173 -78l302 -78zM45 1133l336 -402l170 78l-207 246zM387 721l-133 -475l172 112l121 435zM422 338l-109 -70l101 45zM434 332l170 112l-8 11l-158 -105zM938 66l-94 391l-68 82q-10 -4 -154 -97zM1116 152l-123 522l-168 -76l31 -135 zM987 692l276 178l-81 -36l4 -3l-293 -188l96 45zM952 35l184 82l5 -13l-185 -81z" />
<glyph unicode="&#x3c;" horiz-adv-x="1400" d="M917 1040l449 -120l-363 -234l133 -559l-12 -6l-260 313l92 -393l-10 -6l-334 399l-190 -125l2 -6q-88 -37 -193 -90l6 18l-2 2h2l136 488l-359 438l176 80l-4 4l10 -2h2l297 -78l109 375l2 -8l172 78l4 16zM747 950l416 -112l168 77l-414 111zM837 487l-28 119l344 221 l-424 115l-59 250l-23 -82h-2v-2l-176 -78l-2 -6l-101 25l201 -238l-4 -10l-119 -430l152 100q76 31 180 88zM680 496l-74 -35l8 -8zM475 1047l154 69l-125 31zM737 961l168 75l-123 535l-104 -352zM774 1591l-166 -73l64 -273zM602 1485l-94 -324l129 -35l26 93zM491 1151 l-266 70l127 -154l107 -27zM201 1229l-173 -78l302 -78zM45 1133l336 -402l170 78l-207 246zM387 721l-133 -475l172 112l121 435zM422 338l-109 -70l101 45zM434 332l170 112l-8 11l-158 -105zM938 66l-94 391l-68 82q-10 -4 -154 -97zM1116 152l-123 522l-168 -76l31 -135 zM987 692l276 178l-81 -36l4 -3l-293 -188l96 45zM952 35l184 82l5 -13l-185 -81z" />
<glyph unicode="=" horiz-adv-x="1400" d="M917 1040l449 -120l-363 -234l133 -559l-12 -6l-260 313l92 -393l-10 -6l-334 399l-190 -125l2 -6q-88 -37 -193 -90l6 18l-2 2h2l136 488l-359 438l176 80l-4 4l10 -2h2l297 -78l109 375l2 -8l172 78l4 16zM747 950l416 -112l168 77l-414 111zM837 487l-28 119l344 221 l-424 115l-59 250l-23 -82h-2v-2l-176 -78l-2 -6l-101 25l201 -238l-4 -10l-119 -430l152 100q76 31 180 88zM680 496l-74 -35l8 -8zM475 1047l154 69l-125 31zM737 961l168 75l-123 535l-104 -352zM774 1591l-166 -73l64 -273zM602 1485l-94 -324l129 -35l26 93zM491 1151 l-266 70l127 -154l107 -27zM201 1229l-173 -78l302 -78zM45 1133l336 -402l170 78l-207 246zM387 721l-133 -475l172 112l121 435zM422 338l-109 -70l101 45zM434 332l170 112l-8 11l-158 -105zM938 66l-94 391l-68 82q-10 -4 -154 -97zM1116 152l-123 522l-168 -76l31 -135 zM987 692l276 178l-81 -36l4 -3l-293 -188l96 45zM952 35l184 82l5 -13l-185 -81z" />
<glyph unicode="&#x3e;" horiz-adv-x="1400" d="M917 1040l449 -120l-363 -234l133 -559l-12 -6l-260 313l92 -393l-10 -6l-334 399l-190 -125l2 -6q-88 -37 -193 -90l6 18l-2 2h2l136 488l-359 438l176 80l-4 4l10 -2h2l297 -78l109 375l2 -8l172 78l4 16zM747 950l416 -112l168 77l-414 111zM837 487l-28 119l344 221 l-424 115l-59 250l-23 -82h-2v-2l-176 -78l-2 -6l-101 25l201 -238l-4 -10l-119 -430l152 100q76 31 180 88zM680 496l-74 -35l8 -8zM475 1047l154 69l-125 31zM737 961l168 75l-123 535l-104 -352zM774 1591l-166 -73l64 -273zM602 1485l-94 -324l129 -35l26 93zM491 1151 l-266 70l127 -154l107 -27zM201 1229l-173 -78l302 -78zM45 1133l336 -402l170 78l-207 246zM387 721l-133 -475l172 112l121 435zM422 338l-109 -70l101 45zM434 332l170 112l-8 11l-158 -105zM938 66l-94 391l-68 82q-10 -4 -154 -97zM1116 152l-123 522l-168 -76l31 -135 zM987 692l276 178l-81 -36l4 -3l-293 -188l96 45zM952 35l184 82l5 -13l-185 -81z" />
<glyph unicode="?" horiz-adv-x="960" d="M401 1518q25 0 54 -7l166 -34q109 -23 185.5 -116t76.5 -204v-338q0 -121 -97 -168v-2l-172 -78q0 -98 2 -100l-2 -2v2l-96 -43q106 -53 107 -166q0 -84 -70 -115v-2l-168 -75q-37 -16 -61 -17q-74 0 -129.5 56.5t-55.5 130.5q0 80 76 114l117 54l-203 41v169 q0 139 115 193l143 66q4 2 10 6v67l-90 -41v-4l-301 64v248q0 145 121 198v2l166 76q53 25 106 25zM791 1358q-72 82 -173 104l-167 37q-29 6 -54 6q-43 0 -80 -16v0q-45 -20 -75 -57q4 0 198 -41q106 -23 181 -109zM434 571v-49l168 -35v78q-31 -12 -63 -12q-21 0 -105 18z M451 582q70 -16 88 -17q35 0 63 15v69zM614 588q35 23 54 57l-54 10v-67zM674 657q14 33 14 78v338q0 106 -73.5 194.5t-178.5 110.5l-166 35q-23 4 -37 6q-33 -49 -32 -116v-238l96 -21v86q0 45 25 58l-3 2l175 78q6 10 28 10q35 0 56 -27v2l2 -2q14 -20 14 -57v-324h-2 l-178 -79v-5l-68 15q-20 -43 -20 -99v-157l94 -21v56l8 6l174 78v2l6 6zM297 819q20 0 41 -4q10 18 22 33zM414 872v-67l157 69q-76 16 -92 17q-35 0 -63 -14l2 -3zM399 866q-20 -8 -47 -53l47 -10v63zM477 1006v186l-74 -33q10 -20 11 -139zM467 995l-53 11v-35zM399 1110 q0 70 -57 70q-33 0 -33 -50v-88l90 -20v88zM395 1169l82 37q0 29 4 41l-127 -55q25 -3 41 -23zM489 1219v-7l76 35q-16 16 -43 17q-8 0 -14 -2v-2q-19 -6 -19 -41zM248 1456l-55 -24q16 2 34 2q11 12 21 22zM219 1419q-88 2 -143.5 -56t-55.5 -146v-232l168 76v242 q0 67 31 116zM35 977l262 -55v110l-98 21zM309 924l90 41v45l-90 18v-104zM414 956v-65q31 14 65 14q18 0 103 -18v307q0 25 -9 41l-84 -37v-203q0 -2 3 -4l-3 -2v2zM295 807q-70 0 -113 -62q-37 -53 -37 -127v-151l168 76v159q0 57 19 101q-19 4 -37 4zM156 459l198 -43 q20 12 66 28v68l-98 20zM434 432v-29l51 23q-23 6 -39 6h-12zM403 424q-12 -6 -26 -12l43 -11v31q-8 -2 -17 -6v-2zM344 397l-78 -35q29 -2 60 -14q4 29 18 49zM260 348q-47 0 -75.5 -30.5t-28.5 -77.5q0 -43 20 -80l170 78q-25 43 -24 86l2 10q-33 14 -64 14zM430 178 q0 98 -94 150v-4q0 -100 94 -154v8zM182 150q53 -84 144 -84q23 0 41 8v2q53 23 61 80q-45 23 -76 69zM420 98l86 39q-33 0 -64 13q-6 -29 -22 -52zM506 152q47 0 75.5 31.5t28.5 78.5q0 39 -18 74l-170 -78q25 -41 22 -80l-2 -14q33 -12 64 -12zM586 346q-31 51 -84 74 l-68 -31v-4l-69 14q-23 -23 -27 -57q47 -23 78 -72zM504 434l88 41l-158 33v-62q33 2 70 -12zM655 604l76 35q-25 -2 -49 2q-11 -21 -27 -37zM870 819v338q0 102 -71 191l-170 -76q74 -92 73 -199v-338q0 -45 -14 -82q16 -2 33 -2q68 0 108.5 49t40.5 119z" />
<glyph unicode="@" horiz-adv-x="1400" d="M917 1040l449 -120l-363 -234l133 -559l-12 -6l-260 313l92 -393l-10 -6l-334 399l-190 -125l2 -6q-88 -37 -193 -90l6 18l-2 2h2l136 488l-359 438l176 80l-4 4l10 -2h2l297 -78l109 375l2 -8l172 78l4 16zM747 950l416 -112l168 77l-414 111zM837 487l-28 119l344 221 l-424 115l-59 250l-23 -82h-2v-2l-176 -78l-2 -6l-101 25l201 -238l-4 -10l-119 -430l152 100q76 31 180 88zM680 496l-74 -35l8 -8zM475 1047l154 69l-125 31zM737 961l168 75l-123 535l-104 -352zM774 1591l-166 -73l64 -273zM602 1485l-94 -324l129 -35l26 93zM491 1151 l-266 70l127 -154l107 -27zM201 1229l-173 -78l302 -78zM45 1133l336 -402l170 78l-207 246zM387 721l-133 -475l172 112l121 435zM422 338l-109 -70l101 45zM434 332l170 112l-8 11l-158 -105zM938 66l-94 391l-68 82q-10 -4 -154 -97zM1116 152l-123 522l-168 -76l31 -135 zM987 692l276 178l-81 -36l4 -3l-293 -188l96 45zM952 35l184 82l5 -13l-185 -81z" />
<glyph unicode="A" horiz-adv-x="1191" d="M868 1548l246 -1439l-8 2l2 -2l-234 -82l-4 12l215 76l-239 51l24 -141l-295 61l-20 154l-2 -11l-14 2v-2l-230 -82v-4l-289 62l256 1333l11 -2l-2 6l233 82l2 -2zM530 1606l-22 -117l117 -25l217 76zM575 463l216 -47l-177 1036l-108 23l-62 -320l187 92v4l14 -4 l57 -567h-4l-188 -98l-2 6v-6l-129 26l51 467l-149 -776l38 -8l13 86l-2 6l243 86zM774 408l-186 38l-19 -112zM590 717l98 -21l-49 488zM678 686l-98 21l-80 -41l8 -70zM575 719l54 512l-178 -88l47 -463zM494 598l-7 61l-81 -43zM485 674l-41 411l-49 -458zM518 1610 l-217 -78l195 -41zM287 1522l-248 -1301l227 82l226 1176zM37 215h2l-2 6v-6zM297 160l20 119l-51 10l-217 -76zM313 164l205 72l-188 40zM541 244l8 43l-6 32l-199 41l-12 -71zM344 375l211 -45l20 125zM588 98l6 -2l-2 4l227 82l-31 215l-221 -78l-6 -36zM854 41l-23 129 h-4l-217 -76zM844 180l254 -53l-242 1405l-229 -82z" />
<glyph unicode="B" horiz-adv-x="1048" d="M260 1591l436 -92q106 -23 183 -115t77 -200v-180q0 -84 -47 -140v-2l-2 -2q-66 -66 -151 -67q88 -39 144 -120t56 -175v-181q0 -113 -96 -180q-18 -8 -69 -26l-183 -68q-41 -18 -90 -18q-25 0 -55 6l-443 90v1390l7 -2l-2 4l233 82zM266 1577v-119l197 -41 q117 -25 199 -133l-5 6l217 80q-68 92 -182 117zM330 868l94 35v238q0 45 -27 61q-12 6 -67 19v-353zM422 889l-76 -29q39 -8 45 -8q29 0 31 37zM332 864l-2 4v-4h2zM344 1231q39 -8 47 -12q23 -8 35 -29l121 45v68zM432 1178q4 -16 4 -37v-234l111 39v275zM436 893 q0 -20 -8 -33l174 66l-47 8zM565 946q51 -10 58 -10q33 0 32 45v246q0 16 -6 33l-88 -35zM561 1239l82 31q-12 18 -82 33v-64zM266 1444l2 -1231l416 -84q29 45 29 107v180q0 78 -45 147v-168q0 -47 -29 -57l2 -4l-219 -76l-2 4q-6 -10 -29 -10q-8 0 -76 14v385l11 -2 l166 60l-7 2l2 14l11 -2v2l168 61q47 53 47 134v180q0 80 -47 155q2 -14 2 -30v-242q0 -43 -23 -55v0l-229 -86v4q-10 -6 -25 -6q-8 0 -76 14v383l4 -2l228 82v2h6q29 -4 80 -21q-72 84 -172 105zM330 281l94 32v244q0 45 -27 59q-12 8 -67 19v-354zM422 299l-74 -27 q37 -8 43 -8q27 0 31 35zM416 618l131 50v16q-16 10 -35 18l-162 -57q25 -4 66 -27zM547 711q-6 0 -19 -2q10 -6 19 -11v13zM547 729zM547 653l-123 -45q12 -20 12 -51v-240l111 39v297zM436 303q-2 -16 -6 -29l176 62l-49 10zM561 360q55 -12 62 -12q33 0 32 47v189 q-33 47 -77 80l-17 -7v-297zM561 672l2 2l-2 2v-4zM592 670q35 -27 63 -64v35q0 31 -14 47zM580 680l51 18q-10 8 -58 19l-12 -4v-23zM559 733l14 -4q37 10 68 35zM252 1579l-209 -74l209 -43v117zM35 1495v-1360l217 78v1235zM35 133zM53 127l412 -84q31 -6 53 -6 q102 0 158 80l-414 84zM657 74l86 32q-25 2 -53 7q-13 -21 -33 -39zM944 498q0 74 -39 139l4 -8l-217 -78q33 -66 33 -135v-180q0 -61 -27 -111q27 -4 52 -4q29 0 104 26q4 2 16 13q74 57 74 157v181zM903 641q-63 111 -180 152l-53 -21q-31 -33 -70 -47q51 -12 64 -49 q4 -12 4 -88q10 -12 18 -25zM760 807q68 2 114 43zM944 1184q0 92 -61 174l-217 -80q59 -84 59 -178v-180q0 -72 -35 -123l29 10h2l4 2l2 -2l172 65q45 53 45 132v180z" />
<glyph unicode="C" horiz-adv-x="1024" d="M944 1190v-213h-2v-2l-227 -84l-164 35v-338l92 35l2 -2l299 -64v-235q0 -137 -119 -191v-4l-227 -84q-43 -18 -92 -18q-27 0 -223 41q-109 23 -186 112.5t-77 200.5v868q0 150 121 197l240 92v-2q35 14 76 14q29 0 223 -41q125 -27 194.5 -127t69.5 -190zM858 1378 q-53 74 -158 109q-18 6 -188 43q-29 6 -55 6q-104 0 -162 -84q172 -35 194 -43q92 -33 156 -115l-2 4zM551 1255l74 27q-16 18 -43 18q-31 0 -31 -45zM633 1272l-82 -31v-223l90 35v182q0 21 -8 37zM319 1497l-96 -37q29 2 58 -4q15 23 38 41zM92 209l215 80q-59 84 -59 178 v868q0 61 26 109q-25 4 -47 4q-86 0 -139 -57.5t-53 -143.5v-868q0 -90 57 -170zM100 199q74 -98 187 -121l166 -35q29 -6 53 -6q104 0 162 82q-172 37 -197 45q-88 31 -154 115zM584 332q-23 8 -33 24l-125 -45q0 -27 -4 -39zM551 412q0 -70 57 -70l23 8q10 10 10 39v84 l-90 19v-80zM426 326l119 43q-8 18 -8 127l-111 22v-192zM434 530l103 -22v61zM418 1190q8 -18 8 -45v-172l111 41v221zM537 999l-99 -36l99 -21v57zM537 1249q0 27 6 39l-172 -63q25 -6 39 -23zM414 954v191q0 70 -62 69q-29 0 -28 -45v-847q0 -18 4 -33l86 33v213h4l-2 4 l121 45v344zM406 266q8 12 8 35v6l-80 -31q18 -23 47 -22q7 2 25 12zM645 74l98 37q-29 0 -61 6q-14 -23 -37 -43zM930 322v217l-215 -80v-223q0 -61 -25 -107q23 -4 45 -4q84 0 139.5 56.5t55.5 140.5zM655 606v-123l56 -12l209 78zM655 469q0 -119 -18 -133q-8 -2 -25 -8 l-198 -74q-10 -12 -33 -12h-12q61 -57 145 -76l162 -35q27 45 26 105v225zM641 608l-90 -35v-67l90 -19v121zM338 1227q236 88 244 88q18 0 36 -10q-61 68 -149 96q-8 4 -180 41q-27 -47 -27 -107v-868q0 -82 47 -156v856q0 49 29 58v2zM702 907v121l-55 12l-96 -36v-66z M702 1042v62q0 84 -51 160q4 -14 4 -211zM715 905l207 76l-207 45v-121zM930 993v197q0 94 -64 178l-217 -80q45 -59 58 -119q8 -39 8 -131z" />
<glyph unicode="D" horiz-adv-x="1058" d="M887 1386q53 -66 67 -108q10 -31 11 -92v-869q0 -113 -78 -172q-18 -14 -88 -39l-232 -81v2q-25 -6 -49 -7q-29 0 -57 7l-441 94v1392h7l231 82v2l444 -94q105 -23 185 -117zM895 1354q-78 111 -197 135l-426 90v-119l191 -41q127 -27 207 -145zM258 215v1235l-223 47 v-1362zM272 1446v-1233l414 -86q27 45 27 102v879q0 68 -39 135q2 -8 2 -16v-832q0 -49 -29 -59v0l-233 -84l-2 4q-8 -6 -19 -6q-8 0 -74 14v975l7 -2l229 82l2 -8v10q25 -4 72 -16q-72 82 -168 102zM557 1233v72l-207 -72q39 -8 47 -12q20 -10 31 -33zM557 360v859 l-123 -43q2 -14 2 -31v-828zM332 281l92 32v832q0 43 -27 59q-10 6 -65 19v-942zM422 299l-72 -27q37 -8 43 -8q25 0 29 35zM436 303q0 -18 -6 -31l178 64l-49 10zM571 358q53 -12 60 -12q31 0 31 47v836q0 14 -5 26l-86 -30v-867zM571 1239l82 29q-12 23 -82 37v-66z M258 1581l-205 -74l205 -45v119zM53 127l412 -88q29 -6 57 -6q98 0 156 82l-414 88v-2zM692 111q-16 -23 -37 -41l95 32q-27 3 -58 9zM950 317v869q0 82 -47 155l-225 -79q47 -76 47 -158v-871q0 -61 -27 -110q31 -6 58 -6q6 0 20.5 2t20.5 2q72 12 112.5 66t40.5 130z" />
<glyph unicode="E" horiz-adv-x="927" d="M827 1247l7 -12l-7 -2v-4l-8 2l-217 -78v-6l-53 10v-194l242 -52q0 -14 2 -18h-2v-240l-13 2l-213 -75v-9l-16 2v-147l278 -59v-258h-2v-3l-223 -77v-2h-4l-6 -2v4l-572 121v1380l5 -2l223 80v4l6 -2l4 2v-2l569 -121v-242zM326 881l239 -52v-2l211 74l-239 51v2z M547 1303l41 -9v101l-328 69l2 -1222l326 -70v94h-2l-2 8l-275 58v307l4 -2v4l234 84l2 -6l2 -2v102l-242 51v353h4l224 80v2h10v-2zM537 1288l-199 -71l199 -41v112zM543 414l-205 -74l260 -55l207 73zM815 348l-213 -76v-102l213 -45v223zM549 588l2 2v115h-2v-117z M537 590v117l-205 -72zM35 164l213 76v1226l-213 47v-1349zM260 1479l342 -74l207 74l-549 116v-116zM602 1391v-101l213 -45v221zM248 1593l-199 -69l199 -43v112zM53 156l535 -113v117l-330 69zM602 41l201 72l-201 43v-115zM537 426v152l-213 45v-273zM565 594l189 68 l-189 38v-106zM778 670v219l-213 -76v-98zM537 969v192l-213 45v-313zM549 1171l39 -8v117l-39 8v-117zM602 1167l193 70l-193 41v-111z" />
<glyph unicode="F" horiz-adv-x="923" d="M850 1430v-259l-12 3v-3l-226 -79v-5l-57 11v-183l244 -51v-260l-6 2l-230 -80l-2 9v-15h-6v-409h-6l-234 -82v-4l-295 63v1382l11 -2l-2 2l229 82v4zM541 1116v119l-209 -76zM541 1251l57 -12v96l-326 68v-1219l31 -8v412h4l234 84v2l6 -2v96l-244 51v346h4l234 84v2z M553 903l-215 -78l211 -45l215 78zM541 539v118l-209 -75zM612 1331v-94l224 -49v223zM825 1421l-553 119v-123l338 -71zM258 1538l-209 -74l209 -43v117zM35 1454v-1356h2l-2 4l223 78v1227zM55 94l248 -53v123l-33 6zM315 43l207 74l-207 43v-117zM541 127v397l-226 47 v-397zM561 539l207 73l-207 43v-116zM786 621v231l-4 2l2 -4l-223 -80v-100zM541 913v189l-226 47v-318l4 -2l-2 5zM555 1112l43 -8v121l-43 10v-123zM612 1106l203 74l-203 43v-117z" />
<glyph unicode="G" horiz-adv-x="1038" d="M461 1579q31 0 221 -41q109 -23 185.5 -117t76.5 -204v-213v-3h-2l-176 -63l178 -37v-557q0 -141 -119 -197l2 -4l-231 -82q-57 -20 -92 -20q-29 0 -58 6l-165 35q-109 23 -185 116t-76 203v875q0 150 132 201l-2 2l215 77q61 23 96 23zM930 1018v199q0 96 -66 182 l-221 -78q45 -59 59 -121q10 -45 11 -135zM713 936v-2l4 2h-4zM672 150q27 45 26 102v551l-43 8v-401q0 -33 -14 -50l2 -2q-4 -2 -27 -10l-204 -72q-10 -16 -31 -16q-6 0 -12 2q51 -49 143 -76q29 -9 160 -36zM293 1470q-27 -47 -27 -102v-881q0 -80 43 -151v856q0 47 27 59 l-2 4q246 86 252 86q14 0 30 -6q-59 68 -147 97q-12 1 -176 38zM555 1038l86 31v193q0 14 -4 28l-82 -28v-224zM541 948v2l-131 29v192q0 70 -56 70q-31 0 -30 -45v-856q0 -12 2 -25l84 29v406l-43 10v127l10 -2l-2 4zM332 303q23 -29 49 -29q29 0 29 45v11zM424 336 q0 -31 -4 -43l168 59q-25 8 -35 29zM424 350l123 43q-6 16 -6 37v361l-117 -43v-398zM420 762l121 43v18l-154 -55zM379 870v-90l162 56zM555 827v-18l41 14l-31 8zM393 881l148 -31v84zM571 1325h2q-18 -6 -18 -43v-6l76 27q-14 25 -45 24q-9 0 -15 -2zM541 1272q0 29 6 43 l-178 -64q27 -2 41 -26zM442 985l99 -20v55zM426 987v6l115 41v223l-125 -45q8 -16 8 -41v-182zM641 410v405l-18 4l-68 -24v-365q0 -59 45 -68q6 0 12 -2l17 7q12 12 12 43zM621 834l14 4l-31 8l-14 -6zM598 856v82l-27 6l-16 -6v-90l8 -2zM594 952h4v2zM610 958v-10 l88 -18v8zM598 975l100 -23v101l-39 8l-104 -37v-63l14 -3l29 11v6zM659 1075l39 -8v63q0 80 -47 156q4 -14 4 -29v-182h4zM856 1411q-74 90 -178 113l-166 35q-29 6 -51 6q-39 0 -74 -15v0q-51 -16 -86 -69q160 -33 184 -41q88 -31 150 -107zM322 1526l-99 -35q31 0 64 -6 q15 23 35 41zM35 1276v-875q0 -98 63 -184l221 80l-2 4q-66 100 -65 186v875q0 61 27 111q-27 6 -52 6q-86 0 -139 -58.5t-53 -144.5zM106 207q49 -70 156 -105q23 -6 189 -43q29 -6 53 -6q104 0 162 84q-156 33 -187 43q-92 33 -151 105zM641 92l104 37q-33 -2 -65 4 q-16 -23 -39 -41zM737 141q86 0 139.5 57.5t53.5 145.5v535l-217 -78v-545q0 -61 -27 -109q26 -6 51 -6zM924 891l-183 39l-28 -10v-7l-103 23v-78l45 -10q-2 -12 2 -17h-2v-6l54 -10zM739 944l179 64l-205 43v-101z" />
<glyph unicode="H" horiz-adv-x="1067" d="M659 1532v2l302 -64v-1384l-7 2v-2l-231 -82v-4l-303 63v62l-96 -35v-6l-304 66v1382h7v2l233 82v2l301 -64v-57zM659 1518l-98 -35v-66l98 -20v121zM723 1370v-1218l225 -50v1348zM709 154v1218l-37 8v-397l-4 2l2 -4l-234 -82l-2 4v-6l-125 27v534l-37 6v-1218l37 -8 v454l6 -2v4l234 82v2l123 -26v-590zM434 213l115 -25v506l-115 -41v-440zM530 178l-96 21v-56zM324 676v-440l96 -21v440zM430 666l119 43v55l-215 -78zM647 743l-86 19v-49zM260 250v1218l-225 48v-1348zM434 1432v-451l115 41v385zM449 1442l100 -21v56zM553 1008 l-119 -41v-56l215 78zM324 934zM336 932l84 -19v48zM659 999v383l-98 21v-383zM428 1446l-2 2l123 43v47l-225 -80v-518l96 35v473zM532 1546l-260 56v-123l47 -11v2zM260 1602l-213 -74l213 -47v121zM35 160zM43 158l266 -56v123l-49 11zM324 104l96 35v62l-96 20v-117z M551 174l2 -2l-119 -43v-49l225 80v573l-98 -35v-526zM451 72l258 -56v123l-41 11zM723 18l209 74l-209 45v-119zM938 1460l-266 58v-123l49 -11z" />
<glyph unicode="I" horiz-adv-x="669" d="M256 1577l303 -66v-1382h-4v-2l-231 -82v-2l-304 63l3 1387l233 82v2zM256 1561l-213 -76l213 -45v121zM324 1415v-1222l221 -48v1350zM309 195v1220l-39 8v-1220zM256 205v1220l-221 48v-1348zM35 117zM45 115l264 -56v123l-47 11zM324 59l208 74l-208 45v-119z M530 1503l-260 58v-123l45 -11z" />
<glyph unicode="J" horiz-adv-x="1060" d="M651 1550v6l301 -63v-1131q0 -129 -100 -188v-2q-78 -29 -234 -82v0q-49 -31 -110 -31q-33 0 -223 41q-111 25 -188 117t-77 205v240l9 -3v3l229 81v5l156 -33v755h2v5l233 81zM651 1544l-217 -78l217 -47v125zM426 1454v-741l135 -29v-231q0 -68 47 -72l35 12q8 14 8 37 v977zM272 508q0 -74 37 -141v219l-37 8v-86zM324 588v-226q0 -10 2 -22l6 -8l82 28v258zM547 668l-121 -43v-260l127 45q-6 18 -6 43v215zM426 639l106 37l-106 22v-59zM381 293q33 0 33 51v2l-74 -27q10 -12 20.5 -19t20.5 -7zM426 350q0 -23 -2 -35l164 60q-18 6 -29 22z M418 299q-10 -18 -37 -18h-4q63 -61 139 -78q4 -2 160 -35q27 47 26 104v1123l-38 8v-973q0 -63 -46 -63q-4 0 -8 2zM414 700l-142 31v-123l43 -10l99 35v67zM258 729l-209 -74l209 -45v119zM35 422q0 -115 84 -207l221 78q-10 6 -27 43q-10 12 -20 33q-35 68 -35 139v88 l-223 49v-223zM129 203q66 -68 158 -88l168 -37q29 -6 53 -6q104 0 160 84l-170 39q-84 27 -144 88zM739 145q-25 2 -57 9q-12 -20 -33 -39zM743 160q88 0 142.5 57t54.5 145v1113l-225 -80v-1119q0 -63 -25 -110q26 -6 53 -6zM928 1485l-264 55v-123l45 -10z" />
<glyph unicode="K" horiz-adv-x="1067" d="M655 1532v2l310 -66v-448q0 -90 -56.5 -150.5t-146.5 -62.5q88 -39 145.5 -122t57.5 -177v-424l-9 2l-231 -84v-2l-309 66v53l-86 -31v-4l-310 68v1382h3l233 84l2 -6v6l309 -66v-51zM655 1518l-88 -31v-70l88 -18v119zM662 799q51 53 51 137v438l-45 8v-387 q0 -45 -21 -55l2 -2l-233 -82l-2 4q-8 -10 -27 -10q-6 0 -72 14v594l-43 8v-1220l43 -10v423l4 -2l177 62l-11 4l2 12h5v2zM713 152v272q0 78 -45 151v-413zM655 618v31q0 33 -14 49l-49 -16q34 -27 63 -64zM580 692l51 17q-8 6 -64 18v-29zM555 186v482l-139 -47 q14 -20 14 -56v-354zM539 176l-109 23v-62zM330 643v-410l86 -18v350q0 43 -23 60q-10 6 -63 18zM412 625l-2 6l145 51v10q-18 10 -41 21l-168 -60q31 -8 35 -8q21 -8 31 -20zM555 707v18q-6 0 -25 -6zM555 743l8 -2q39 8 72 33l-111 -39q18 2 29 4q0 -2 2 0v4zM258 246 v1224l-223 48v-1352zM430 1434v-519l125 46v446zM444 1444l111 -23v62zM557 946l-127 -45q-2 -16 -6 -29l178 64zM387 862q25 0 29 35l-72 -27q37 -8 43 -8zM655 993v391l-88 21v-447q53 -12 58 -12q30 0 30 47zM422 1448v2l133 47v39l-225 -80v-575l86 30v539zM537 1544 l-265 58v-121l52 -13zM258 1604l-211 -76l211 -45v121zM51 158l264 -56v121l-51 10zM330 100l86 33v68l-86 18v-119zM563 170l-133 -47v-43l225 80v436q-35 47 -77 80l-11 -2v-506zM451 74l262 -58v121l-49 13zM725 16l209 74l-209 45v-119zM950 508q0 98 -65.5 183 t-159.5 116l-55 -21q-35 -35 -80 -51q59 -12 72 -45q6 -16 6 -90q57 -84 57 -176v-274l225 -50v408zM727 819q96 -8 159.5 48.5t63.5 152.5v434l-225 -80v-438q0 -76 -39 -129l39 14v-4zM932 1462l-264 56v-121l51 -11z" />
<glyph unicode="L" horiz-adv-x="886" d="M827 94l-225 -80v-4l-582 123v1391h3l-3 2l226 80v2h4l4 2v-4l295 -62l2 -1132l276 -58v-260zM35 154l211 73v1235l-211 45v-1353zM260 229l328 -69v98l-279 59v1131l-49 10v-1229zM545 399l-211 -73l260 -56l209 74zM602 258v-102l211 -45v223zM803 100l-201 43v-114z M324 336l211 76v1114l-211 -76v-1114zM524 1536l-264 55v-118l53 -13zM246 1591l-205 -71l205 -45v116zM43 141l545 -114v118l-334 72z" />
<glyph unicode="M" horiz-adv-x="1472" d="M1378 102h-2l-211 -75v-4l-284 67v92l-166 -59l-2 -4l-242 51l-20 102l-162 -57v-6l-269 57v1284h3l210 76v4l443 -94l31 -201l12 68l4 -2v2l209 74l2 4l444 -95v-1284zM918 213l180 895l-199 -72l-6 -819zM901 203l-8 2v-4zM881 221l6 758l-148 -729zM1112 1122l-6 -944 l47 -10v1128l-231 50l-115 -650h-2l2 -2l-184 -65l73 -369l31 -6l160 790h4v3l209 75v2zM530 1028l58 -371l8 41zM602 666l-6 -33l12 4zM608 698l13 -57l174 61l-88 558zM1165 1298v-1132l201 -49v1253zM1354 1378l-412 88l-18 -108l233 -49zM930 1462l-187 -65l168 -35z M729 1386l-16 -90l88 -561l108 615zM700 1296l-34 226l-203 -72l37 -225h4l98 -492l66 375q4 18 22 94q10 45 10 94zM492 303l-3 907l-198 -69l166 -830zM477 293l-18 4l2 -8zM233 354v1139l-200 43v-1253zM246 1489v-1133l30 -8v797h3l-3 4l211 74l-34 223zM289 1083v-737 l153 -33zM649 1528l-403 86v-111l207 -45zM233 1614l-190 -68l190 -41v109zM45 274l231 -49v111l-34 8zM289 227l160 58l-3 16l-157 33v-107zM463 276l18 -90l203 72l-74 367l-16 -7h-12l-78 500v-829h-4zM496 178l206 -45l23 109l-33 6zM717 137l164 60v10l-144 31z M926 199l-33 -13v-77l201 71l6 879zM901 98l252 -59v117l-55 12zM1165 41l189 68l-189 43v-111z" />
<glyph unicode="N" horiz-adv-x="1128" d="M743 1522l2 -2l279 -60v-1378h-2l-225 -80v-2h-6v2l-252 53l-43 119l-189 -68v-2h-6l-281 62v1378h3l225 78v4l4 -2h2l252 -53l41 -119l192 68v2l2 -2zM739 1505l-186 -65l2 -10l184 -39v114zM1010 1442l-213 -76v-1223l213 -45v1344zM782 1368l-30 6v-502l2 -2l-213 -75 l235 -648h6v1221zM522 203l-2 588l-8 -3l-201 -69l187 -512zM508 190l-6 3l2 -3h4zM35 180l213 76v1227l-213 45v-1348zM260 258l35 -8l2 477l211 76l-240 674l-8 2v-1221zM535 809v-2l200 72l-190 540l-21 4v-614h11zM537 1434h4l-2 2zM307 688v-440l174 -37zM739 911v467 l-178 37zM535 1448l-37 106l-215 -75l229 -650v611zM479 1563l-219 47v-117l14 -4zM248 1608l-199 -70l199 -43v113zM53 172l242 -51v117l-37 6zM307 121l185 65l-5 11l-180 36v-112zM508 178l39 -108l215 77l-227 623v-584h-3zM565 63l217 -47v117l-12 2zM797 16l200 72 l-200 41v-113zM997 1452l-245 53v-116l41 -9z" />
<glyph unicode="O" horiz-adv-x="1026" d="M897 1343q35 -63 35 -135v-866q0 -141 -123 -195v-4l-231 -82v2q-37 -14 -78 -14q-25 0 -54 6l-167 35q-106 23 -182.5 114t-76.5 199v867q0 164 148 207v0l192 67q63 23 91 23q27 0 55 -6l168 -37q143 -31 223 -181zM848 1399q-53 74 -156 106q-2 0 -188 41q-29 6 -51 6 q-27 0 -50 -6v0q-74 -25 -106 -71q164 -35 186 -43q96 -33 152 -109zM664 152q29 45 28 108v866q0 104 -71.5 193.5t-174.5 110.5l-157 32q-29 -47 -29 -110v-867q0 -84 49 -159q-2 12 -2 24v834q0 55 35 61h-2q78 27 231 84l2 -2q72 4 72 -82v-835q0 -35 -14 -52v-2 l-228 -80q-8 -10 -26 -10q-10 0 -25 6q57 -59 144 -86q27 -3 168 -34zM319 1188v-842q0 -16 7 -31l82 29v821q0 23 -9 39l-2 -2l-4 12q-16 18 -43 19q-31 0 -31 -45zM575 1313q-29 0 -30 -43l73 24q-16 19 -43 19zM602 362q31 0 31 46v839q0 20 -8 37l-80 -29v-827 q0 -66 57 -66zM395 287q12 12 13 41v2l-76 -27q14 -23 45 -22q14 0 18 6zM420 336q0 -29 -4 -41l164 57q-23 8 -35 27zM420 350l119 41q-6 16 -7 39v821l-120 -43q8 -18 8 -45v-813zM532 1266q0 23 7 37l-168 -60q23 -6 35 -24zM315 1516l-86 -31q27 0 54 -6q14 21 32 37z M35 403q0 -96 65 -182l213 76q-68 88 -67 188v867q0 66 28 114q-25 4 -49 4q-86 0 -138 -57t-52 -143v-867zM109 211q76 -88 172 -109l168 -34q29 -6 53 -7q96 0 153 78q-170 37 -184 41q-88 29 -149 107zM631 94l102 37q-35 -2 -63 6q-16 -25 -39 -43zM918 342v866 q0 96 -62 181l-213 -76q63 -88 64 -187v-866q0 -63 -29 -113q25 -4 49 -4q84 0 137.5 57.5t53.5 141.5z" />
<glyph unicode="P" horiz-adv-x="1007" d="M260 1554l422 -90q106 -23 182 -115t76 -200v-332q0 -160 -137 -205l2 -2l-232 -82l-2 2l-20 -6v-399l-8 -6v-2l-232 -82v2l-291 61v1368l9 7zM866 1325q-74 102 -186 127l-416 88v-119l187 -39q119 -25 198 -135zM696 723v344q0 80 -45 152q4 -14 4 -27v-299 q0 -49 -37 -62q-229 -82 -239 -81q-6 0 -72 14l4 436q2 0 4 2v-2l232 84q25 -4 69 -18q-72 84 -167 104l-185 39v-1219l43 -8v381l8 6l2 -2l230 84l123 -26q26 45 26 98zM539 537v96l-197 -70q139 -31 164 -31q17 1 33 5zM252 1411l-217 47v-1347l217 77v1223zM51 1466 l201 -41v113zM262 178l-207 -74l252 -53v117zM641 889v305q0 14 -4 27l-86 -31l2 -334q51 -10 57 -10q31 0 31 43zM395 768v0h2q8 6 13 25l-68 -23q33 -8 37 -8q10 0 16 6zM539 1200v66l-197 -70q33 -6 41 -10q20 -10 31 -31zM539 854v332l-121 -43q6 -14 6 -33v-297z M410 1110q0 43 -25 57q-10 8 -66 19v-410l91 33v301zM319 776v-2h3zM422 799q0 -14 -4 -23l170 60l-39 8zM551 1204l82 29q-12 20 -82 37v-66zM319 53l201 70l-201 43v-113zM539 133v389q-16 -2 -33 -2q-25 0 -187 35v-375zM551 637v-98q70 16 111 73zM635 565l106 37 q-29 0 -65 8q-21 -31 -41 -45zM928 811v338q0 86 -54 164l-217 -78q53 -80 54 -168v-332q0 -68 -27 -112q29 -6 55 -7q84 0 136.5 55.5t52.5 139.5z" />
<glyph unicode="Q" horiz-adv-x="1032" d="M938 1264v-801q0 -143 -119 -195v-2l-121 -43v-127l-6 -4l-2 -2l-231 -82l-199 43v164q-102 27 -171 116t-69 193v801q0 147 130 197v2l231 82v-2q37 14 76 14q27 0 221 -41q109 -23 184.5 -113.5t75.5 -199.5zM860 1442q-74 98 -186 123l-164 34q-29 6 -53 7 q-98 0 -156 -80q162 -35 191 -45q90 -33 151 -117zM692 377v805q0 82 -47 155q6 -16 6 -39v-770q0 -59 -43 -59h-10l-188 -66q-10 -16 -33 -16q-10 0 -17 2q61 -61 144 -84v-106l145 51q18 20 27 43v4h2q14 39 14 80zM684 233v15l-27 -10l-22 -23zM504 180q82 2 125 47 l-125 -43v-4zM492 143v25q-12 2 -25 2v0v-37zM492 293l-218 -78v-149l179 63v49l8 6h4l27 9v100zM334 1278q-14 -10 -15 -41v-770q0 -16 7 -31l82 29v752q0 57 -46 65q-10 4 -12 2zM565 1362v-2h-2q-12 -10 -12 -41v-2l76 26q-14 23 -45 23q-11 0 -17 -4zM539 1313 q0 27 4 41l-168 -62q23 -6 33 -26zM414 1255q6 -18 6 -38v-746l123 43q-4 16 -4 35v749zM330 424q16 -25 47 -25t31 43v9zM420 457q0 -27 -2 -37l160 57q-18 8 -29 25zM596 483l35 13q6 12 6 32v770q0 18 -4 33l-82 -28v-754q0 -56 45 -66zM582 1380q25 0 43 -16 q-57 76 -148 109q-27 10 -184 40q-29 -45 -29 -102v-805q0 -78 43 -149v780q0 39 19 53q8 2 20 6l211 76q23 8 25 8zM328 1573l-105 -37q29 0 64 -6q16 25 41 43zM35 1325v-801q0 -88 53 -166l217 76q-53 82 -53 172v799q0 63 27 113q-25 6 -54 6q-84 0 -137 -57.5 t-53 -141.5zM96 346q68 -92 170 -121l211 76q-98 33 -164 123zM291 57l162 -34v92zM467 25l197 71l-166 35l-31 -10v-96zM684 104v115l-96 -35q-39 -16 -84 -16v-25zM698 238l35 12q-18 0 -35 2v-14zM733 262q117 0 168 100l-213 -75q-6 -14 -16 -29l16 4l4 4q23 -4 41 -4z M924 463v801q0 88 -56 168l-217 -78q55 -82 56 -172v-801q0 -41 -13 -78l213 76v-2q17 39 17 86z" />
<glyph unicode="R" horiz-adv-x="1046" d="M254 1618l432 -92q109 -23 186.5 -122t77.5 -210v-184q0 -88 -56 -147.5t-144 -63.5q88 -39 144 -120t56 -175v-412l-233 -82l-305 66v51l-84 -29v-4l-308 68v1374zM840 1421q-70 74 -158 92l-418 89v-117l191 -41q94 -20 168 -101zM653 791q53 53 54 137v184 q0 106 -76 201.5t-180 118.5l-187 38v-1216l51 -10l2 411l166 62l2 10l-2 2l2 2h2zM707 422q0 82 -52 160v-414l52 -10v264zM643 645q0 25 -8 41l-41 -14q27 -23 49 -51v24zM580 680l47 16q-10 12 -68 25v-27q11 -6 21 -14zM547 193v460l-131 -45q10 -18 10 -45v-344z M528 182l-102 23v-60zM328 639v-399l84 -19v342q0 43 -23 58q-10 8 -61 18zM412 618l-2 3l137 47v20q-20 12 -41 21l-168 -60q35 -6 41 -8q21 -9 33 -23zM559 680v-6l6 2zM547 702v17q-8 0 -25 -4q13 -5 25 -13zM549 737l8 -2q39 8 70 31l-78 -27v-2zM35 176l217 76v1223 l-217 45v-1344zM252 1604l-205 -72l205 -45v117zM53 168l262 -57v118l-55 13zM328 113l84 28v68l-84 18v-114zM553 178l-127 -47v-39l217 78v430q-20 33 -63 66l-21 -7v-483zM440 84l267 -57v118l-58 13zM719 25l207 73l-207 43v-116zM938 109v395q0 68 -35 131l-217 -78 q33 -66 33 -135v-266zM897 647q-63 113 -178 152l-57 -21q-33 -33 -78 -49q23 -4 57 -27h2q12 -43 12 -98q14 -18 25 -35zM938 1010v184q0 115 -88 215l-219 -78q88 -102 88 -219v-184q0 -76 -41 -129l39 12v2q92 -8 156.5 48.5t64.5 148.5zM547 1329q68 -14 80 -22 q29 -18 28 -70v-248q0 -43 -16 -53q-4 -2 -21 -8l-210 -74q-6 -8 -25 -8q-6 0 -68 12v389l4 -2l228 80v4zM635 1280q-12 18 -76 33v-60zM547 1311l-203 -70q35 -8 41 -10q20 -10 31 -29l131 45v64zM555 938l-131 -45q0 -12 -4 -21l168 60zM547 950v283l-127 -43q6 -16 6 -37 v-246zM328 1231v-359l84 29v252q0 45 -21 59q-12 7 -63 19zM348 864q31 -6 35 -6q23 0 27 29zM643 987v252q0 14 -4 29l-80 -29v-287q53 -12 55 -10l17 4q12 12 12 41z" />
<glyph unicode="S" horiz-adv-x="1034" d="M895 1368v-2q47 -88 47 -160v-250l-151 -53q70 -35 110.5 -108.5t40.5 -153.5v-293q0 -137 -115 -194v-2l-231 -82q-57 -20 -90 -21q-18 0 -57 8l-166 35q-106 23 -184.5 115t-78.5 201v215h3l174 61q-76 25 -126.5 96.5t-50.5 151.5v336q0 160 148 202v0l197 70 q63 23 94 23q29 0 221 -41q135 -29 213 -154h2zM881 1364q-74 115 -203 143l-166 37q-18 4 -53 4q-29 0 -56 -6v-2q-70 -23 -104 -72l37 -8q145 -31 170 -41q92 -37 156 -133zM698 1022v100q0 84 -49 160q6 -16 6 -39v-211zM713 911v-22l39 14q-10 2 -39 8zM698 557 q0 82 -43 154v-297q0 -45 -18 -52l2 -2l-231 -81q-4 -10 -27 -11q-10 0 -16 2q20 -18 43 -34q2 2 2 0q49 -35 106 -48l156 -32q27 47 26 108v293zM264 557v-65q0 -78 45 -150q-2 6 -2 205zM250 684v4l-8 -2zM336 303q14 -20 45 -20t31 45v2zM322 545v-197q0 -18 6 -35l84 31 v234zM547 391q-8 18 -8 43v189l-113 -41v-234zM426 334q0 -25 -6 -37l170 59q-23 8 -37 25zM612 367q29 0 29 43v307l-164 -60l74 -14v-209q0 -23 8 -37h2q6 -30 51 -30zM530 633l-75 16l-29 -10v-43zM412 649l16 6l-164 35v-10zM412 635l-148 33v-97l55 -12l93 33v43z M264 1016q0 -74 43 -137v303q0 37 19 51v2l229 82q6 10 29 10t43 -14q-61 82 -150 104q-35 8 -186 39q-27 -45 -27 -104v-336zM551 999l90 33v213q0 20 -6 35l-84 -31v-250zM561 1305q-10 -12 -10 -39v-2l78 28q-16 20 -45 21q-10 0 -19 -4q0 -2 -4 -4zM539 1260q0 25 4 38 l-168 -59q25 -8 37 -25zM418 1202q8 -18 8 -43v-205l113 41v250zM322 1186v-303l129 45l-39 8v223q0 70 -60 70q-30 0 -30 -43zM436 944l39 -6l64 23v20zM545 948l-45 -16l198 -43v26zM551 961l147 -31v80l-51 10l-96 -35v-24zM319 1511l-92 -32q29 0 58 -6q14 20 34 38z M35 1268v-336q0 -72 41 -135l219 77q-45 68 -45 142v336q0 61 26 108q-25 4 -49 4q-84 0 -138 -56t-54 -140zM84 786q55 -76 133 -96l33 12v5l203 -43l170 61l-172 35q-86 16 -148 104zM319 862q47 -70 136 -88l182 -39q-57 74 -129 88zM219 678l-172 -62l203 -43v97 q-11 2 -31 8zM35 408q0 -156 141 -256v2l217 77q-143 104 -143 261v67l-215 47v-198zM188 143q43 -29 97 -39l166 -34q29 -6 55 -7q100 0 158 80q-45 8 -134 27q-72 14 -124 51zM643 100l94 35q-10 0 -29.5 3t-29.5 3q-15 -23 -35 -41zM930 348v293q0 76 -37 141l-219 -77 q39 -70 39 -148v-293q0 -63 -27 -110q25 -6 49 -7q86 0 140.5 57.5t54.5 143.5zM885 795q-47 74 -113 102l-59 -23v-2l-238 52l-141 -52l178 -36q90 -18 156 -119zM772 911l146 52l-205 43v-80q20 -5 59 -15zM930 973v233q0 78 -41 146l-219 -78q35 -57 41 -123 q2 -20 2 -131z" />
<glyph unicode="T" horiz-adv-x="1044" d="M254 1595l719 -151v-258h-4l-207 -74v-1001h-6l-224 -78v-6l-8 2h-2l-291 63v1120l-211 43v258h3zM250 1581l-203 -72l203 -45v117zM743 1350v-107l5 2v2l4 -2l206 -43v225zM743 1229v-109l5 2v109zM729 1239v111l-465 98v-98l209 -45v-1121l45 -8v987h2zM729 1225 l-184 -66l184 -39v105zM244 1208v-1102l217 76v1102zM469 172l-207 -74l256 -53v117zM250 1350v102l-215 45v-223zM47 1264l197 -41l207 73l-197 41zM532 47l197 70l-197 43v-113zM748 127v981l-5 -2v-4l-6 2l-205 43v-975zM762 1126l182 66l-182 39v-105zM942 1436 l-678 143v-117l471 -100z" />
<glyph unicode="U" horiz-adv-x="1044" d="M645 1495v-2l297 -63v-1115q0 -147 -129 -198v-2l-233 -84v2q-35 -14 -74 -15q-27 0 -55 7l-168 34q-127 27 -209 150h-2v4q-51 94 -52 162v1118h3l229 82v2l299 -64v-51zM643 1481l-92 -33v-68l92 -18v119zM672 123q29 47 28 108v1104l-45 11v-963q0 -45 -20 -53v-2 l-227 -80q-4 -10 -27 -10q-10 0 -16 2q61 -61 143 -80q4 -2 164 -37zM264 459q0 -78 45 -150v1110l-45 8v-968zM426 1395v-1073l119 43q-6 16 -6 41v964zM434 1405l105 -23v62zM551 352l-125 -45q0 -29 -6 -41l170 60q-27 6 -39 26zM412 297v6l-78 -29q16 -23 47 -22 q18 2 18 6v0q13 12 13 39zM641 379l2 969l-92 18v-960q0 -70 59 -70q31 0 31 43zM414 1409v4l125 43v39l-217 -76v-1102q0 -16 6 -30l84 30zM524 1505l-260 56v-119l51 -10zM252 1561l-205 -74l205 -43v117zM35 1477v-1102q0 -78 43 -150l219 78q-45 74 -45 156v973zM86 213 q76 -111 201 -139l166 -37q27 -6 53 -6q100 0 158 82q-168 35 -205 49q-92 37 -154 129zM639 68l102 34q-33 0 -63 7q-16 -23 -39 -41zM735 117q86 0 140.5 56t54.5 142v1098l-217 -78v-1104q0 -63 -27 -110q26 -4 49 -4zM915 1421l-260 56v-119l52 -10z" />
<glyph unicode="V" horiz-adv-x="1210" d="M924 84l-234 -84l-422 90l-248 1438l5 -2v2l227 82v2l330 -70l24 -160l4 19h4l-2 2l228 82v2l6 -2l311 -66zM512 186l190 -41l207 1180l-75 14l-115 -841h-6v-2l-226 -82q-4 0 -6 -2v2h-6q-61 506 -137 1032l-45 10zM606 1286l-117 -856l216 76zM924 1325l-207 -1184 l194 -41l228 1301zM1130 1411l-278 59l-16 -116l82 -19zM838 1468l-203 -71l188 -41zM621 1386l-7 -49q0 -2 2 -16q31 -188 62 -379q35 -227 35 -381v-10l108 792zM600 1337q-14 86 -29 189l-219 -78l33 -211q31 -190 61 -379q35 -225 35 -383v-10zM555 1534l-287 61 l23 -125l53 -12zM254 1595l-209 -73l231 -49zM37 1509l242 -1405l219 78l-219 1276zM297 98l383 -82l20 115l-190 41zM715 129l-21 -111l203 72z" />
<glyph unicode="W" horiz-adv-x="1677" d="M1329 1380v2l293 -61l-219 -1249h-2v-2l-217 -78l-2 6l-2 -6l-389 82l-13 84l-137 -49l-2 6v-9l-391 82l-228 1344h5v2l217 78l2 -8v10l301 -66l20 -131h2v2l217 80l308 -65l20 -134h4v3zM1327 1366l-194 -70l180 -39zM1118 1286l-2 -16l6 -43q29 -182 56 -365 q39 -268 32 -358l101 741zM1024 164l168 -35l192 1102l-61 12l-106 -788h-5v-2l-217 -76zM1202 463l-92 762l-115 -836zM1104 1270q-10 68 -23 145l-209 -74l29 -194q45 -305 62 -469q2 -53 16 -186l10 -64zM850 201l72 592l-207 -74l69 -504zM836 193l-50 10l5 -27z M770 219l-61 459l-54 -434zM924 809h4q-29 258 -70 532l-80 19l-106 -791q-2 2 -221 -75v2l-2 -7h-3l35 -208l162 -35l59 481h7v2l215 78v2zM414 682q-45 379 -103 776l-30 6zM657 580l-94 766l-112 -840zM1069 1425l-274 58l-17 -111l90 -18zM782 1483l-198 -70l182 -39z M571 1403l-2 -14q2 -8 9 -48q29 -178 57 -356q31 -219 31 -356v-8l100 741zM557 1389l-22 143l-211 -74l30 -196q29 -178 58 -357q33 -217 32 -356l-2 -10zM522 1540l-264 57l21 -118l40 -11zM246 1599l-203 -71l221 -47zM37 1518l221 -1313l211 74l-201 1189zM272 197 l355 -76l14 112l-166 35zM639 123l139 47l-6 35l-119 26zM791 162l12 -78h4l-4 8l209 74l-29 209h-2q-14 127 -49 383l-72 -572h-2zM813 82l356 -76l21 111l-174 37zM1184 6l196 70l-178 39zM1393 86l213 1219l-209 -74l-193 -1104zM1593 1313l-252 53l-16 -111l68 -14z" />
<glyph unicode="X" horiz-adv-x="1189" d="M807 1516l309 -66l-276 -659l252 -709l-7 2l-223 -80l2 -4l-317 68l-27 98l-158 -55l-2 -5l-313 68l250 600l-274 778l227 80v2l2 -2l2 2l2 -2l309 -65l37 -123zM881 1370l204 72l-274 59l-41 -108zM657 543l-59 168l270 647l-102 22l-88 -235h-2l-213 -76l78 -215 l-248 -590l92 -18l61 221h3v2zM668 514l-6 16l-209 -75l67 -238l60 -12zM559 195l-35 8l4 -19zM504 219l-55 203l-50 -180zM457 1087l2 -4l213 76l-76 256l-14 4zM610 1413l68 -227l74 196zM795 1497l-189 -67v-3l152 -32zM590 1438l-35 114l-215 -77q33 -125 111 -367 l122 326h2zM354 1376l-28 97l-7 2zM537 1559l-267 57l45 -127l15 -2zM254 1620l-207 -74l252 -53zM41 1534l266 -752l217 78l-73 205h-2v-2q-2 6 -7 14h2q-14 47 -139 402zM309 770l-241 -580l213 76l241 578zM78 180l274 -57l31 110l-98 21zM367 127l149 53l-8 25l-113 24z M532 172l25 -90l217 76q-31 113 -100 334l-84 -304l-6 2zM766 233l20 -73h7zM578 74l266 -56l-45 125l-17 4zM858 16l203 72l-248 53zM1071 100l-242 682l-215 -77l56 -158l6 2l2 4l37 -135q14 -39 94 -262zM827 795l267 637l-211 -76l-267 -637z" />
<glyph unicode="Y" horiz-adv-x="1175" d="M1112 1419l-274 -667v-652l-232 -82v2l-313 68v647l-268 787l221 80v2l4 -2l4 2l2 -2l305 -66l37 -125l201 74zM307 104l211 74v629l-211 -76v-627zM532 180l66 -14l2 508q-2 2 0 2l268 651l-106 23l-86 -234q0 -2 -2 -2v-4l-2 4l-215 -78l75 -217v-639zM385 1243 l-59 199l-11 4zM582 1389l-125 -338l211 75l-76 260zM606 1382l68 -229l76 199zM612 666v-504l211 -45v624zM825 756l265 643l-207 -74l-267 -643zM1083 1411l-276 59l-39 -108l111 -23zM791 1466l-189 -67v-2l152 -31zM575 1403l11 4l-33 113l-213 -76l109 -373l124 332h2z M537 1528l-271 57l43 -125l23 -6zM252 1587l-205 -71l248 -54zM41 1503l262 -760l213 76l-217 629zM322 94l276 -57v115l-72 16zM612 150v-115l201 71z" />
<glyph unicode="Z" horiz-adv-x="997" d="M913 96h-4l-227 -80l-614 134v194l282 866l-330 70v256h3l229 80l629 -133v-236l-297 -819l329 -70v-262zM262 1370l336 -70l-289 -878v-182l363 -78v106l-336 70l303 831v222l-377 79v-100zM250 1372v103l-217 45v-226zM684 264v-104l217 -47v229zM887 350l-312 68 l-204 -72l313 -67zM569 430l293 805l-213 -76l-293 -805zM868 1466l-217 -77v-215l217 75v217zM852 1475l-590 124v-114l387 -82zM250 1602l-201 -72l201 -43v115zM51 1288l316 -67l204 71l-317 68zM362 1204l-278 -852l213 76l281 852zM80 164l217 76v174l-217 -78v-172z M98 156l574 -123v114l-371 82zM684 31l201 71l-201 43v-114z" />
<glyph unicode="[" horiz-adv-x="1400" d="M917 1040l449 -120l-363 -234l133 -559l-12 -6l-260 313l92 -393l-10 -6l-334 399l-190 -125l2 -6q-88 -37 -193 -90l6 18l-2 2h2l136 488l-359 438l176 80l-4 4l10 -2h2l297 -78l109 375l2 -8l172 78l4 16zM747 950l416 -112l168 77l-414 111zM837 487l-28 119l344 221 l-424 115l-59 250l-23 -82h-2v-2l-176 -78l-2 -6l-101 25l201 -238l-4 -10l-119 -430l152 100q76 31 180 88zM680 496l-74 -35l8 -8zM475 1047l154 69l-125 31zM737 961l168 75l-123 535l-104 -352zM774 1591l-166 -73l64 -273zM602 1485l-94 -324l129 -35l26 93zM491 1151 l-266 70l127 -154l107 -27zM201 1229l-173 -78l302 -78zM45 1133l336 -402l170 78l-207 246zM387 721l-133 -475l172 112l121 435zM422 338l-109 -70l101 45zM434 332l170 112l-8 11l-158 -105zM938 66l-94 391l-68 82q-10 -4 -154 -97zM1116 152l-123 522l-168 -76l31 -135 zM987 692l276 178l-81 -36l4 -3l-293 -188l96 45zM952 35l184 82l5 -13l-185 -81z" />
<glyph unicode="\" horiz-adv-x="1400" d="M917 1040l449 -120l-363 -234l133 -559l-12 -6l-260 313l92 -393l-10 -6l-334 399l-190 -125l2 -6q-88 -37 -193 -90l6 18l-2 2h2l136 488l-359 438l176 80l-4 4l10 -2h2l297 -78l109 375l2 -8l172 78l4 16zM747 950l416 -112l168 77l-414 111zM837 487l-28 119l344 221 l-424 115l-59 250l-23 -82h-2v-2l-176 -78l-2 -6l-101 25l201 -238l-4 -10l-119 -430l152 100q76 31 180 88zM680 496l-74 -35l8 -8zM475 1047l154 69l-125 31zM737 961l168 75l-123 535l-104 -352zM774 1591l-166 -73l64 -273zM602 1485l-94 -324l129 -35l26 93zM491 1151 l-266 70l127 -154l107 -27zM201 1229l-173 -78l302 -78zM45 1133l336 -402l170 78l-207 246zM387 721l-133 -475l172 112l121 435zM422 338l-109 -70l101 45zM434 332l170 112l-8 11l-158 -105zM938 66l-94 391l-68 82q-10 -4 -154 -97zM1116 152l-123 522l-168 -76l31 -135 zM987 692l276 178l-81 -36l4 -3l-293 -188l96 45zM952 35l184 82l5 -13l-185 -81z" />
<glyph unicode="]" horiz-adv-x="1400" d="M917 1040l449 -120l-363 -234l133 -559l-12 -6l-260 313l92 -393l-10 -6l-334 399l-190 -125l2 -6q-88 -37 -193 -90l6 18l-2 2h2l136 488l-359 438l176 80l-4 4l10 -2h2l297 -78l109 375l2 -8l172 78l4 16zM747 950l416 -112l168 77l-414 111zM837 487l-28 119l344 221 l-424 115l-59 250l-23 -82h-2v-2l-176 -78l-2 -6l-101 25l201 -238l-4 -10l-119 -430l152 100q76 31 180 88zM680 496l-74 -35l8 -8zM475 1047l154 69l-125 31zM737 961l168 75l-123 535l-104 -352zM774 1591l-166 -73l64 -273zM602 1485l-94 -324l129 -35l26 93zM491 1151 l-266 70l127 -154l107 -27zM201 1229l-173 -78l302 -78zM45 1133l336 -402l170 78l-207 246zM387 721l-133 -475l172 112l121 435zM422 338l-109 -70l101 45zM434 332l170 112l-8 11l-158 -105zM938 66l-94 391l-68 82q-10 -4 -154 -97zM1116 152l-123 522l-168 -76l31 -135 zM987 692l276 178l-81 -36l4 -3l-293 -188l96 45zM952 35l184 82l5 -13l-185 -81z" />
<glyph unicode="^" horiz-adv-x="1400" d="M917 1040l449 -120l-363 -234l133 -559l-12 -6l-260 313l92 -393l-10 -6l-334 399l-190 -125l2 -6q-88 -37 -193 -90l6 18l-2 2h2l136 488l-359 438l176 80l-4 4l10 -2h2l297 -78l109 375l2 -8l172 78l4 16zM747 950l416 -112l168 77l-414 111zM837 487l-28 119l344 221 l-424 115l-59 250l-23 -82h-2v-2l-176 -78l-2 -6l-101 25l201 -238l-4 -10l-119 -430l152 100q76 31 180 88zM680 496l-74 -35l8 -8zM475 1047l154 69l-125 31zM737 961l168 75l-123 535l-104 -352zM774 1591l-166 -73l64 -273zM602 1485l-94 -324l129 -35l26 93zM491 1151 l-266 70l127 -154l107 -27zM201 1229l-173 -78l302 -78zM45 1133l336 -402l170 78l-207 246zM387 721l-133 -475l172 112l121 435zM422 338l-109 -70l101 45zM434 332l170 112l-8 11l-158 -105zM938 66l-94 391l-68 82q-10 -4 -154 -97zM1116 152l-123 522l-168 -76l31 -135 zM987 692l276 178l-81 -36l4 -3l-293 -188l96 45zM952 35l184 82l5 -13l-185 -81z" />
<glyph unicode="_" horiz-adv-x="1400" d="M917 1040l449 -120l-363 -234l133 -559l-12 -6l-260 313l92 -393l-10 -6l-334 399l-190 -125l2 -6q-88 -37 -193 -90l6 18l-2 2h2l136 488l-359 438l176 80l-4 4l10 -2h2l297 -78l109 375l2 -8l172 78l4 16zM747 950l416 -112l168 77l-414 111zM837 487l-28 119l344 221 l-424 115l-59 250l-23 -82h-2v-2l-176 -78l-2 -6l-101 25l201 -238l-4 -10l-119 -430l152 100q76 31 180 88zM680 496l-74 -35l8 -8zM475 1047l154 69l-125 31zM737 961l168 75l-123 535l-104 -352zM774 1591l-166 -73l64 -273zM602 1485l-94 -324l129 -35l26 93zM491 1151 l-266 70l127 -154l107 -27zM201 1229l-173 -78l302 -78zM45 1133l336 -402l170 78l-207 246zM387 721l-133 -475l172 112l121 435zM422 338l-109 -70l101 45zM434 332l170 112l-8 11l-158 -105zM938 66l-94 391l-68 82q-10 -4 -154 -97zM1116 152l-123 522l-168 -76l31 -135 zM987 692l276 178l-81 -36l4 -3l-293 -188l96 45zM952 35l184 82l5 -13l-185 -81z" />
<glyph unicode="`" horiz-adv-x="1400" d="M917 1040l449 -120l-363 -234l133 -559l-12 -6l-260 313l92 -393l-10 -6l-334 399l-190 -125l2 -6q-88 -37 -193 -90l6 18l-2 2h2l136 488l-359 438l176 80l-4 4l10 -2h2l297 -78l109 375l2 -8l172 78l4 16zM747 950l416 -112l168 77l-414 111zM837 487l-28 119l344 221 l-424 115l-59 250l-23 -82h-2v-2l-176 -78l-2 -6l-101 25l201 -238l-4 -10l-119 -430l152 100q76 31 180 88zM680 496l-74 -35l8 -8zM475 1047l154 69l-125 31zM737 961l168 75l-123 535l-104 -352zM774 1591l-166 -73l64 -273zM602 1485l-94 -324l129 -35l26 93zM491 1151 l-266 70l127 -154l107 -27zM201 1229l-173 -78l302 -78zM45 1133l336 -402l170 78l-207 246zM387 721l-133 -475l172 112l121 435zM422 338l-109 -70l101 45zM434 332l170 112l-8 11l-158 -105zM938 66l-94 391l-68 82q-10 -4 -154 -97zM1116 152l-123 522l-168 -76l31 -135 zM987 692l276 178l-81 -36l4 -3l-293 -188l96 45zM952 35l184 82l5 -13l-185 -81z" />
<glyph unicode="a" horiz-adv-x="1191" d="M868 1548l246 -1439l-8 2l2 -2l-234 -82l-4 12l215 76l-239 51l24 -141l-295 61l-20 154l-2 -11l-14 2v-2l-230 -82v-4l-289 62l256 1333l11 -2l-2 6l233 82l2 -2zM530 1606l-22 -117l117 -25l217 76zM575 463l216 -47l-177 1036l-108 23l-62 -320l187 92v4l14 -4 l57 -567h-4l-188 -98l-2 6v-6l-129 26l51 467l-149 -776l38 -8l13 86l-2 6l243 86zM774 408l-186 38l-19 -112zM590 717l98 -21l-49 488zM678 686l-98 21l-80 -41l8 -70zM575 719l54 512l-178 -88l47 -463zM494 598l-7 61l-81 -43zM485 674l-41 411l-49 -458zM518 1610 l-217 -78l195 -41zM287 1522l-248 -1301l227 82l226 1176zM37 215h2l-2 6v-6zM297 160l20 119l-51 10l-217 -76zM313 164l205 72l-188 40zM541 244l8 43l-6 32l-199 41l-12 -71zM344 375l211 -45l20 125zM588 98l6 -2l-2 4l227 82l-31 215l-221 -78l-6 -36zM854 41l-23 129 h-4l-217 -76zM844 180l254 -53l-242 1405l-229 -82z" />
<glyph unicode="b" horiz-adv-x="1048" d="M260 1591l436 -92q106 -23 183 -115t77 -200v-180q0 -84 -47 -140v-2l-2 -2q-66 -66 -151 -67q88 -39 144 -120t56 -175v-181q0 -113 -96 -180q-18 -8 -69 -26l-183 -68q-41 -18 -90 -18q-25 0 -55 6l-443 90v1390l7 -2l-2 4l233 82zM266 1577v-119l197 -41 q117 -25 199 -133l-5 6l217 80q-68 92 -182 117zM330 868l94 35v238q0 45 -27 61q-12 6 -67 19v-353zM422 889l-76 -29q39 -8 45 -8q29 0 31 37zM332 864l-2 4v-4h2zM344 1231q39 -8 47 -12q23 -8 35 -29l121 45v68zM432 1178q4 -16 4 -37v-234l111 39v275zM436 893 q0 -20 -8 -33l174 66l-47 8zM565 946q51 -10 58 -10q33 0 32 45v246q0 16 -6 33l-88 -35zM561 1239l82 31q-12 18 -82 33v-64zM266 1444l2 -1231l416 -84q29 45 29 107v180q0 78 -45 147v-168q0 -47 -29 -57l2 -4l-219 -76l-2 4q-6 -10 -29 -10q-8 0 -76 14v385l11 -2 l166 60l-7 2l2 14l11 -2v2l168 61q47 53 47 134v180q0 80 -47 155q2 -14 2 -30v-242q0 -43 -23 -55v0l-229 -86v4q-10 -6 -25 -6q-8 0 -76 14v383l4 -2l228 82v2h6q29 -4 80 -21q-72 84 -172 105zM330 281l94 32v244q0 45 -27 59q-12 8 -67 19v-354zM422 299l-74 -27 q37 -8 43 -8q27 0 31 35zM416 618l131 50v16q-16 10 -35 18l-162 -57q25 -4 66 -27zM547 711q-6 0 -19 -2q10 -6 19 -11v13zM547 729zM547 653l-123 -45q12 -20 12 -51v-240l111 39v297zM436 303q-2 -16 -6 -29l176 62l-49 10zM561 360q55 -12 62 -12q33 0 32 47v189 q-33 47 -77 80l-17 -7v-297zM561 672l2 2l-2 2v-4zM592 670q35 -27 63 -64v35q0 31 -14 47zM580 680l51 18q-10 8 -58 19l-12 -4v-23zM559 733l14 -4q37 10 68 35zM252 1579l-209 -74l209 -43v117zM35 1495v-1360l217 78v1235zM35 133zM53 127l412 -84q31 -6 53 -6 q102 0 158 80l-414 84zM657 74l86 32q-25 2 -53 7q-13 -21 -33 -39zM944 498q0 74 -39 139l4 -8l-217 -78q33 -66 33 -135v-180q0 -61 -27 -111q27 -4 52 -4q29 0 104 26q4 2 16 13q74 57 74 157v181zM903 641q-63 111 -180 152l-53 -21q-31 -33 -70 -47q51 -12 64 -49 q4 -12 4 -88q10 -12 18 -25zM760 807q68 2 114 43zM944 1184q0 92 -61 174l-217 -80q59 -84 59 -178v-180q0 -72 -35 -123l29 10h2l4 2l2 -2l172 65q45 53 45 132v180z" />
<glyph unicode="c" horiz-adv-x="1024" d="M944 1190v-213h-2v-2l-227 -84l-164 35v-338l92 35l2 -2l299 -64v-235q0 -137 -119 -191v-4l-227 -84q-43 -18 -92 -18q-27 0 -223 41q-109 23 -186 112.5t-77 200.5v868q0 150 121 197l240 92v-2q35 14 76 14q29 0 223 -41q125 -27 194.5 -127t69.5 -190zM858 1378 q-53 74 -158 109q-18 6 -188 43q-29 6 -55 6q-104 0 -162 -84q172 -35 194 -43q92 -33 156 -115l-2 4zM551 1255l74 27q-16 18 -43 18q-31 0 -31 -45zM633 1272l-82 -31v-223l90 35v182q0 21 -8 37zM319 1497l-96 -37q29 2 58 -4q15 23 38 41zM92 209l215 80q-59 84 -59 178 v868q0 61 26 109q-25 4 -47 4q-86 0 -139 -57.5t-53 -143.5v-868q0 -90 57 -170zM100 199q74 -98 187 -121l166 -35q29 -6 53 -6q104 0 162 82q-172 37 -197 45q-88 31 -154 115zM584 332q-23 8 -33 24l-125 -45q0 -27 -4 -39zM551 412q0 -70 57 -70l23 8q10 10 10 39v84 l-90 19v-80zM426 326l119 43q-8 18 -8 127l-111 22v-192zM434 530l103 -22v61zM418 1190q8 -18 8 -45v-172l111 41v221zM537 999l-99 -36l99 -21v57zM537 1249q0 27 6 39l-172 -63q25 -6 39 -23zM414 954v191q0 70 -62 69q-29 0 -28 -45v-847q0 -18 4 -33l86 33v213h4l-2 4 l121 45v344zM406 266q8 12 8 35v6l-80 -31q18 -23 47 -22q7 2 25 12zM645 74l98 37q-29 0 -61 6q-14 -23 -37 -43zM930 322v217l-215 -80v-223q0 -61 -25 -107q23 -4 45 -4q84 0 139.5 56.5t55.5 140.5zM655 606v-123l56 -12l209 78zM655 469q0 -119 -18 -133q-8 -2 -25 -8 l-198 -74q-10 -12 -33 -12h-12q61 -57 145 -76l162 -35q27 45 26 105v225zM641 608l-90 -35v-67l90 -19v121zM338 1227q236 88 244 88q18 0 36 -10q-61 68 -149 96q-8 4 -180 41q-27 -47 -27 -107v-868q0 -82 47 -156v856q0 49 29 58v2zM702 907v121l-55 12l-96 -36v-66z M702 1042v62q0 84 -51 160q4 -14 4 -211zM715 905l207 76l-207 45v-121zM930 993v197q0 94 -64 178l-217 -80q45 -59 58 -119q8 -39 8 -131z" />
<glyph unicode="d" horiz-adv-x="1058" d="M887 1386q53 -66 67 -108q10 -31 11 -92v-869q0 -113 -78 -172q-18 -14 -88 -39l-232 -81v2q-25 -6 -49 -7q-29 0 -57 7l-441 94v1392h7l231 82v2l444 -94q105 -23 185 -117zM895 1354q-78 111 -197 135l-426 90v-119l191 -41q127 -27 207 -145zM258 215v1235l-223 47 v-1362zM272 1446v-1233l414 -86q27 45 27 102v879q0 68 -39 135q2 -8 2 -16v-832q0 -49 -29 -59v0l-233 -84l-2 4q-8 -6 -19 -6q-8 0 -74 14v975l7 -2l229 82l2 -8v10q25 -4 72 -16q-72 82 -168 102zM557 1233v72l-207 -72q39 -8 47 -12q20 -10 31 -33zM557 360v859 l-123 -43q2 -14 2 -31v-828zM332 281l92 32v832q0 43 -27 59q-10 6 -65 19v-942zM422 299l-72 -27q37 -8 43 -8q25 0 29 35zM436 303q0 -18 -6 -31l178 64l-49 10zM571 358q53 -12 60 -12q31 0 31 47v836q0 14 -5 26l-86 -30v-867zM571 1239l82 29q-12 23 -82 37v-66z M258 1581l-205 -74l205 -45v119zM53 127l412 -88q29 -6 57 -6q98 0 156 82l-414 88v-2zM692 111q-16 -23 -37 -41l95 32q-27 3 -58 9zM950 317v869q0 82 -47 155l-225 -79q47 -76 47 -158v-871q0 -61 -27 -110q31 -6 58 -6q6 0 20.5 2t20.5 2q72 12 112.5 66t40.5 130z" />
<glyph unicode="e" horiz-adv-x="927" d="M827 1247l7 -12l-7 -2v-4l-8 2l-217 -78v-6l-53 10v-194l242 -52q0 -14 2 -18h-2v-240l-13 2l-213 -75v-9l-16 2v-147l278 -59v-258h-2v-3l-223 -77v-2h-4l-6 -2v4l-572 121v1380l5 -2l223 80v4l6 -2l4 2v-2l569 -121v-242zM326 881l239 -52v-2l211 74l-239 51v2z M547 1303l41 -9v101l-328 69l2 -1222l326 -70v94h-2l-2 8l-275 58v307l4 -2v4l234 84l2 -6l2 -2v102l-242 51v353h4l224 80v2h10v-2zM537 1288l-199 -71l199 -41v112zM543 414l-205 -74l260 -55l207 73zM815 348l-213 -76v-102l213 -45v223zM549 588l2 2v115h-2v-117z M537 590v117l-205 -72zM35 164l213 76v1226l-213 47v-1349zM260 1479l342 -74l207 74l-549 116v-116zM602 1391v-101l213 -45v221zM248 1593l-199 -69l199 -43v112zM53 156l535 -113v117l-330 69zM602 41l201 72l-201 43v-115zM537 426v152l-213 45v-273zM565 594l189 68 l-189 38v-106zM778 670v219l-213 -76v-98zM537 969v192l-213 45v-313zM549 1171l39 -8v117l-39 8v-117zM602 1167l193 70l-193 41v-111z" />
<glyph unicode="f" horiz-adv-x="923" d="M850 1430v-259l-12 3v-3l-226 -79v-5l-57 11v-183l244 -51v-260l-6 2l-230 -80l-2 9v-15h-6v-409h-6l-234 -82v-4l-295 63v1382l11 -2l-2 2l229 82v4zM541 1116v119l-209 -76zM541 1251l57 -12v96l-326 68v-1219l31 -8v412h4l234 84v2l6 -2v96l-244 51v346h4l234 84v2z M553 903l-215 -78l211 -45l215 78zM541 539v118l-209 -75zM612 1331v-94l224 -49v223zM825 1421l-553 119v-123l338 -71zM258 1538l-209 -74l209 -43v117zM35 1454v-1356h2l-2 4l223 78v1227zM55 94l248 -53v123l-33 6zM315 43l207 74l-207 43v-117zM541 127v397l-226 47 v-397zM561 539l207 73l-207 43v-116zM786 621v231l-4 2l2 -4l-223 -80v-100zM541 913v189l-226 47v-318l4 -2l-2 5zM555 1112l43 -8v121l-43 10v-123zM612 1106l203 74l-203 43v-117z" />
<glyph unicode="g" horiz-adv-x="1038" d="M461 1579q31 0 221 -41q109 -23 185.5 -117t76.5 -204v-213v-3h-2l-176 -63l178 -37v-557q0 -141 -119 -197l2 -4l-231 -82q-57 -20 -92 -20q-29 0 -58 6l-165 35q-109 23 -185 116t-76 203v875q0 150 132 201l-2 2l215 77q61 23 96 23zM930 1018v199q0 96 -66 182 l-221 -78q45 -59 59 -121q10 -45 11 -135zM713 936v-2l4 2h-4zM672 150q27 45 26 102v551l-43 8v-401q0 -33 -14 -50l2 -2q-4 -2 -27 -10l-204 -72q-10 -16 -31 -16q-6 0 -12 2q51 -49 143 -76q29 -9 160 -36zM293 1470q-27 -47 -27 -102v-881q0 -80 43 -151v856q0 47 27 59 l-2 4q246 86 252 86q14 0 30 -6q-59 68 -147 97q-12 1 -176 38zM555 1038l86 31v193q0 14 -4 28l-82 -28v-224zM541 948v2l-131 29v192q0 70 -56 70q-31 0 -30 -45v-856q0 -12 2 -25l84 29v406l-43 10v127l10 -2l-2 4zM332 303q23 -29 49 -29q29 0 29 45v11zM424 336 q0 -31 -4 -43l168 59q-25 8 -35 29zM424 350l123 43q-6 16 -6 37v361l-117 -43v-398zM420 762l121 43v18l-154 -55zM379 870v-90l162 56zM555 827v-18l41 14l-31 8zM393 881l148 -31v84zM571 1325h2q-18 -6 -18 -43v-6l76 27q-14 25 -45 24q-9 0 -15 -2zM541 1272q0 29 6 43 l-178 -64q27 -2 41 -26zM442 985l99 -20v55zM426 987v6l115 41v223l-125 -45q8 -16 8 -41v-182zM641 410v405l-18 4l-68 -24v-365q0 -59 45 -68q6 0 12 -2l17 7q12 12 12 43zM621 834l14 4l-31 8l-14 -6zM598 856v82l-27 6l-16 -6v-90l8 -2zM594 952h4v2zM610 958v-10 l88 -18v8zM598 975l100 -23v101l-39 8l-104 -37v-63l14 -3l29 11v6zM659 1075l39 -8v63q0 80 -47 156q4 -14 4 -29v-182h4zM856 1411q-74 90 -178 113l-166 35q-29 6 -51 6q-39 0 -74 -15v0q-51 -16 -86 -69q160 -33 184 -41q88 -31 150 -107zM322 1526l-99 -35q31 0 64 -6 q15 23 35 41zM35 1276v-875q0 -98 63 -184l221 80l-2 4q-66 100 -65 186v875q0 61 27 111q-27 6 -52 6q-86 0 -139 -58.5t-53 -144.5zM106 207q49 -70 156 -105q23 -6 189 -43q29 -6 53 -6q104 0 162 84q-156 33 -187 43q-92 33 -151 105zM641 92l104 37q-33 -2 -65 4 q-16 -23 -39 -41zM737 141q86 0 139.5 57.5t53.5 145.5v535l-217 -78v-545q0 -61 -27 -109q26 -6 51 -6zM924 891l-183 39l-28 -10v-7l-103 23v-78l45 -10q-2 -12 2 -17h-2v-6l54 -10zM739 944l179 64l-205 43v-101z" />
<glyph unicode="h" horiz-adv-x="1067" d="M659 1532v2l302 -64v-1384l-7 2v-2l-231 -82v-4l-303 63v62l-96 -35v-6l-304 66v1382h7v2l233 82v2l301 -64v-57zM659 1518l-98 -35v-66l98 -20v121zM723 1370v-1218l225 -50v1348zM709 154v1218l-37 8v-397l-4 2l2 -4l-234 -82l-2 4v-6l-125 27v534l-37 6v-1218l37 -8 v454l6 -2v4l234 82v2l123 -26v-590zM434 213l115 -25v506l-115 -41v-440zM530 178l-96 21v-56zM324 676v-440l96 -21v440zM430 666l119 43v55l-215 -78zM647 743l-86 19v-49zM260 250v1218l-225 48v-1348zM434 1432v-451l115 41v385zM449 1442l100 -21v56zM553 1008 l-119 -41v-56l215 78zM324 934zM336 932l84 -19v48zM659 999v383l-98 21v-383zM428 1446l-2 2l123 43v47l-225 -80v-518l96 35v473zM532 1546l-260 56v-123l47 -11v2zM260 1602l-213 -74l213 -47v121zM35 160zM43 158l266 -56v123l-49 11zM324 104l96 35v62l-96 20v-117z M551 174l2 -2l-119 -43v-49l225 80v573l-98 -35v-526zM451 72l258 -56v123l-41 11zM723 18l209 74l-209 45v-119zM938 1460l-266 58v-123l49 -11z" />
<glyph unicode="i" horiz-adv-x="669" d="M256 1577l303 -66v-1382h-4v-2l-231 -82v-2l-304 63l3 1387l233 82v2zM256 1561l-213 -76l213 -45v121zM324 1415v-1222l221 -48v1350zM309 195v1220l-39 8v-1220zM256 205v1220l-221 48v-1348zM35 117zM45 115l264 -56v123l-47 11zM324 59l208 74l-208 45v-119z M530 1503l-260 58v-123l45 -11z" />
<glyph unicode="j" horiz-adv-x="1060" d="M651 1550v6l301 -63v-1131q0 -129 -100 -188v-2q-78 -29 -234 -82v0q-49 -31 -110 -31q-33 0 -223 41q-111 25 -188 117t-77 205v240l9 -3v3l229 81v5l156 -33v755h2v5l233 81zM651 1544l-217 -78l217 -47v125zM426 1454v-741l135 -29v-231q0 -68 47 -72l35 12q8 14 8 37 v977zM272 508q0 -74 37 -141v219l-37 8v-86zM324 588v-226q0 -10 2 -22l6 -8l82 28v258zM547 668l-121 -43v-260l127 45q-6 18 -6 43v215zM426 639l106 37l-106 22v-59zM381 293q33 0 33 51v2l-74 -27q10 -12 20.5 -19t20.5 -7zM426 350q0 -23 -2 -35l164 60q-18 6 -29 22z M418 299q-10 -18 -37 -18h-4q63 -61 139 -78q4 -2 160 -35q27 47 26 104v1123l-38 8v-973q0 -63 -46 -63q-4 0 -8 2zM414 700l-142 31v-123l43 -10l99 35v67zM258 729l-209 -74l209 -45v119zM35 422q0 -115 84 -207l221 78q-10 6 -27 43q-10 12 -20 33q-35 68 -35 139v88 l-223 49v-223zM129 203q66 -68 158 -88l168 -37q29 -6 53 -6q104 0 160 84l-170 39q-84 27 -144 88zM739 145q-25 2 -57 9q-12 -20 -33 -39zM743 160q88 0 142.5 57t54.5 145v1113l-225 -80v-1119q0 -63 -25 -110q26 -6 53 -6zM928 1485l-264 55v-123l45 -10z" />
<glyph unicode="k" horiz-adv-x="1067" d="M655 1532v2l310 -66v-448q0 -90 -56.5 -150.5t-146.5 -62.5q88 -39 145.5 -122t57.5 -177v-424l-9 2l-231 -84v-2l-309 66v53l-86 -31v-4l-310 68v1382h3l233 84l2 -6v6l309 -66v-51zM655 1518l-88 -31v-70l88 -18v119zM662 799q51 53 51 137v438l-45 8v-387 q0 -45 -21 -55l2 -2l-233 -82l-2 4q-8 -10 -27 -10q-6 0 -72 14v594l-43 8v-1220l43 -10v423l4 -2l177 62l-11 4l2 12h5v2zM713 152v272q0 78 -45 151v-413zM655 618v31q0 33 -14 49l-49 -16q34 -27 63 -64zM580 692l51 17q-8 6 -64 18v-29zM555 186v482l-139 -47 q14 -20 14 -56v-354zM539 176l-109 23v-62zM330 643v-410l86 -18v350q0 43 -23 60q-10 6 -63 18zM412 625l-2 6l145 51v10q-18 10 -41 21l-168 -60q31 -8 35 -8q21 -8 31 -20zM555 707v18q-6 0 -25 -6zM555 743l8 -2q39 8 72 33l-111 -39q18 2 29 4q0 -2 2 0v4zM258 246 v1224l-223 48v-1352zM430 1434v-519l125 46v446zM444 1444l111 -23v62zM557 946l-127 -45q-2 -16 -6 -29l178 64zM387 862q25 0 29 35l-72 -27q37 -8 43 -8zM655 993v391l-88 21v-447q53 -12 58 -12q30 0 30 47zM422 1448v2l133 47v39l-225 -80v-575l86 30v539zM537 1544 l-265 58v-121l52 -13zM258 1604l-211 -76l211 -45v121zM51 158l264 -56v121l-51 10zM330 100l86 33v68l-86 18v-119zM563 170l-133 -47v-43l225 80v436q-35 47 -77 80l-11 -2v-506zM451 74l262 -58v121l-49 13zM725 16l209 74l-209 45v-119zM950 508q0 98 -65.5 183 t-159.5 116l-55 -21q-35 -35 -80 -51q59 -12 72 -45q6 -16 6 -90q57 -84 57 -176v-274l225 -50v408zM727 819q96 -8 159.5 48.5t63.5 152.5v434l-225 -80v-438q0 -76 -39 -129l39 14v-4zM932 1462l-264 56v-121l51 -11z" />
<glyph unicode="l" horiz-adv-x="827" d="M827 94l-225 -80v-4l-582 123v1391h3l-3 2l226 80v2h4l4 2v-4l295 -62l2 -1132l276 -58v-260zM35 154l211 73v1235l-211 45v-1353zM260 229l328 -69v98l-279 59v1131l-49 10v-1229zM545 399l-211 -73l260 -56l209 74zM602 258v-102l211 -45v223zM803 100l-201 43v-114z M324 336l211 76v1114l-211 -76v-1114zM524 1536l-264 55v-118l53 -13zM246 1591l-205 -71l205 -45v116zM43 141l545 -114v118l-334 72z" />
<glyph unicode="m" horiz-adv-x="1472" d="M1378 102h-2l-211 -75v-4l-284 67v92l-166 -59l-2 -4l-242 51l-20 102l-162 -57v-6l-269 57v1284h3l210 76v4l443 -94l31 -201l12 68l4 -2v2l209 74l2 4l444 -95v-1284zM918 213l180 895l-199 -72l-6 -819zM901 203l-8 2v-4zM881 221l6 758l-148 -729zM1112 1122l-6 -944 l47 -10v1128l-231 50l-115 -650h-2l2 -2l-184 -65l73 -369l31 -6l160 790h4v3l209 75v2zM530 1028l58 -371l8 41zM602 666l-6 -33l12 4zM608 698l13 -57l174 61l-88 558zM1165 1298v-1132l201 -49v1253zM1354 1378l-412 88l-18 -108l233 -49zM930 1462l-187 -65l168 -35z M729 1386l-16 -90l88 -561l108 615zM700 1296l-34 226l-203 -72l37 -225h4l98 -492l66 375q4 18 22 94q10 45 10 94zM492 303l-3 907l-198 -69l166 -830zM477 293l-18 4l2 -8zM233 354v1139l-200 43v-1253zM246 1489v-1133l30 -8v797h3l-3 4l211 74l-34 223zM289 1083v-737 l153 -33zM649 1528l-403 86v-111l207 -45zM233 1614l-190 -68l190 -41v109zM45 274l231 -49v111l-34 8zM289 227l160 58l-3 16l-157 33v-107zM463 276l18 -90l203 72l-74 367l-16 -7h-12l-78 500v-829h-4zM496 178l206 -45l23 109l-33 6zM717 137l164 60v10l-144 31z M926 199l-33 -13v-77l201 71l6 879zM901 98l252 -59v117l-55 12zM1165 41l189 68l-189 43v-111z" />
<glyph unicode="n" horiz-adv-x="1128" d="M743 1522l2 -2l279 -60v-1378h-2l-225 -80v-2h-6v2l-252 53l-43 119l-189 -68v-2h-6l-281 62v1378h3l225 78v4l4 -2h2l252 -53l41 -119l192 68v2l2 -2zM739 1505l-186 -65l2 -10l184 -39v114zM1010 1442l-213 -76v-1223l213 -45v1344zM782 1368l-30 6v-502l2 -2l-213 -75 l235 -648h6v1221zM522 203l-2 588l-8 -3l-201 -69l187 -512zM508 190l-6 3l2 -3h4zM35 180l213 76v1227l-213 45v-1348zM260 258l35 -8l2 477l211 76l-240 674l-8 2v-1221zM535 809v-2l200 72l-190 540l-21 4v-614h11zM537 1434h4l-2 2zM307 688v-440l174 -37zM739 911v467 l-178 37zM535 1448l-37 106l-215 -75l229 -650v611zM479 1563l-219 47v-117l14 -4zM248 1608l-199 -70l199 -43v113zM53 172l242 -51v117l-37 6zM307 121l185 65l-5 11l-180 36v-112zM508 178l39 -108l215 77l-227 623v-584h-3zM565 63l217 -47v117l-12 2zM797 16l200 72 l-200 41v-113zM997 1452l-245 53v-116l41 -9z" />
<glyph unicode="o" horiz-adv-x="1026" d="M897 1343q35 -63 35 -135v-866q0 -141 -123 -195v-4l-231 -82v2q-37 -14 -78 -14q-25 0 -54 6l-167 35q-106 23 -182.5 114t-76.5 199v867q0 164 148 207v0l192 67q63 23 91 23q27 0 55 -6l168 -37q143 -31 223 -181zM848 1399q-53 74 -156 106q-2 0 -188 41q-29 6 -51 6 q-27 0 -50 -6v0q-74 -25 -106 -71q164 -35 186 -43q96 -33 152 -109zM664 152q29 45 28 108v866q0 104 -71.5 193.5t-174.5 110.5l-157 32q-29 -47 -29 -110v-867q0 -84 49 -159q-2 12 -2 24v834q0 55 35 61h-2q78 27 231 84l2 -2q72 4 72 -82v-835q0 -35 -14 -52v-2 l-228 -80q-8 -10 -26 -10q-10 0 -25 6q57 -59 144 -86q27 -3 168 -34zM319 1188v-842q0 -16 7 -31l82 29v821q0 23 -9 39l-2 -2l-4 12q-16 18 -43 19q-31 0 -31 -45zM575 1313q-29 0 -30 -43l73 24q-16 19 -43 19zM602 362q31 0 31 46v839q0 20 -8 37l-80 -29v-827 q0 -66 57 -66zM395 287q12 12 13 41v2l-76 -27q14 -23 45 -22q14 0 18 6zM420 336q0 -29 -4 -41l164 57q-23 8 -35 27zM420 350l119 41q-6 16 -7 39v821l-120 -43q8 -18 8 -45v-813zM532 1266q0 23 7 37l-168 -60q23 -6 35 -24zM315 1516l-86 -31q27 0 54 -6q14 21 32 37z M35 403q0 -96 65 -182l213 76q-68 88 -67 188v867q0 66 28 114q-25 4 -49 4q-86 0 -138 -57t-52 -143v-867zM109 211q76 -88 172 -109l168 -34q29 -6 53 -7q96 0 153 78q-170 37 -184 41q-88 29 -149 107zM631 94l102 37q-35 -2 -63 6q-16 -25 -39 -43zM918 342v866 q0 96 -62 181l-213 -76q63 -88 64 -187v-866q0 -63 -29 -113q25 -4 49 -4q84 0 137.5 57.5t53.5 141.5z" />
<glyph unicode="p" horiz-adv-x="1007" d="M260 1554l422 -90q106 -23 182 -115t76 -200v-332q0 -160 -137 -205l2 -2l-232 -82l-2 2l-20 -6v-399l-8 -6v-2l-232 -82v2l-291 61v1368l9 7zM866 1325q-74 102 -186 127l-416 88v-119l187 -39q119 -25 198 -135zM696 723v344q0 80 -45 152q4 -14 4 -27v-299 q0 -49 -37 -62q-229 -82 -239 -81q-6 0 -72 14l4 436q2 0 4 2v-2l232 84q25 -4 69 -18q-72 84 -167 104l-185 39v-1219l43 -8v381l8 6l2 -2l230 84l123 -26q26 45 26 98zM539 537v96l-197 -70q139 -31 164 -31q17 1 33 5zM252 1411l-217 47v-1347l217 77v1223zM51 1466 l201 -41v113zM262 178l-207 -74l252 -53v117zM641 889v305q0 14 -4 27l-86 -31l2 -334q51 -10 57 -10q31 0 31 43zM395 768v0h2q8 6 13 25l-68 -23q33 -8 37 -8q10 0 16 6zM539 1200v66l-197 -70q33 -6 41 -10q20 -10 31 -31zM539 854v332l-121 -43q6 -14 6 -33v-297z M410 1110q0 43 -25 57q-10 8 -66 19v-410l91 33v301zM319 776v-2h3zM422 799q0 -14 -4 -23l170 60l-39 8zM551 1204l82 29q-12 20 -82 37v-66zM319 53l201 70l-201 43v-113zM539 133v389q-16 -2 -33 -2q-25 0 -187 35v-375zM551 637v-98q70 16 111 73zM635 565l106 37 q-29 0 -65 8q-21 -31 -41 -45zM928 811v338q0 86 -54 164l-217 -78q53 -80 54 -168v-332q0 -68 -27 -112q29 -6 55 -7q84 0 136.5 55.5t52.5 139.5z" />
<glyph unicode="q" horiz-adv-x="1032" d="M938 1264v-801q0 -143 -119 -195v-2l-121 -43v-127l-6 -4l-2 -2l-231 -82l-199 43v164q-102 27 -171 116t-69 193v801q0 147 130 197v2l231 82v-2q37 14 76 14q27 0 221 -41q109 -23 184.5 -113.5t75.5 -199.5zM860 1442q-74 98 -186 123l-164 34q-29 6 -53 7 q-98 0 -156 -80q162 -35 191 -45q90 -33 151 -117zM692 377v805q0 82 -47 155q6 -16 6 -39v-770q0 -59 -43 -59h-10l-188 -66q-10 -16 -33 -16q-10 0 -17 2q61 -61 144 -84v-106l145 51q18 20 27 43v4h2q14 39 14 80zM684 233v15l-27 -10l-22 -23zM504 180q82 2 125 47 l-125 -43v-4zM492 143v25q-12 2 -25 2v0v-37zM492 293l-218 -78v-149l179 63v49l8 6h4l27 9v100zM334 1278q-14 -10 -15 -41v-770q0 -16 7 -31l82 29v752q0 57 -46 65q-10 4 -12 2zM565 1362v-2h-2q-12 -10 -12 -41v-2l76 26q-14 23 -45 23q-11 0 -17 -4zM539 1313 q0 27 4 41l-168 -62q23 -6 33 -26zM414 1255q6 -18 6 -38v-746l123 43q-4 16 -4 35v749zM330 424q16 -25 47 -25t31 43v9zM420 457q0 -27 -2 -37l160 57q-18 8 -29 25zM596 483l35 13q6 12 6 32v770q0 18 -4 33l-82 -28v-754q0 -56 45 -66zM582 1380q25 0 43 -16 q-57 76 -148 109q-27 10 -184 40q-29 -45 -29 -102v-805q0 -78 43 -149v780q0 39 19 53q8 2 20 6l211 76q23 8 25 8zM328 1573l-105 -37q29 0 64 -6q16 25 41 43zM35 1325v-801q0 -88 53 -166l217 76q-53 82 -53 172v799q0 63 27 113q-25 6 -54 6q-84 0 -137 -57.5 t-53 -141.5zM96 346q68 -92 170 -121l211 76q-98 33 -164 123zM291 57l162 -34v92zM467 25l197 71l-166 35l-31 -10v-96zM684 104v115l-96 -35q-39 -16 -84 -16v-25zM698 238l35 12q-18 0 -35 2v-14zM733 262q117 0 168 100l-213 -75q-6 -14 -16 -29l16 4l4 4q23 -4 41 -4z M924 463v801q0 88 -56 168l-217 -78q55 -82 56 -172v-801q0 -41 -13 -78l213 76v-2q17 39 17 86z" />
<glyph unicode="r" horiz-adv-x="1046" d="M254 1618l432 -92q109 -23 186.5 -122t77.5 -210v-184q0 -88 -56 -147.5t-144 -63.5q88 -39 144 -120t56 -175v-412l-233 -82l-305 66v51l-84 -29v-4l-308 68v1374zM840 1421q-70 74 -158 92l-418 89v-117l191 -41q94 -20 168 -101zM653 791q53 53 54 137v184 q0 106 -76 201.5t-180 118.5l-187 38v-1216l51 -10l2 411l166 62l2 10l-2 2l2 2h2zM707 422q0 82 -52 160v-414l52 -10v264zM643 645q0 25 -8 41l-41 -14q27 -23 49 -51v24zM580 680l47 16q-10 12 -68 25v-27q11 -6 21 -14zM547 193v460l-131 -45q10 -18 10 -45v-344z M528 182l-102 23v-60zM328 639v-399l84 -19v342q0 43 -23 58q-10 8 -61 18zM412 618l-2 3l137 47v20q-20 12 -41 21l-168 -60q35 -6 41 -8q21 -9 33 -23zM559 680v-6l6 2zM547 702v17q-8 0 -25 -4q13 -5 25 -13zM549 737l8 -2q39 8 70 31l-78 -27v-2zM35 176l217 76v1223 l-217 45v-1344zM252 1604l-205 -72l205 -45v117zM53 168l262 -57v118l-55 13zM328 113l84 28v68l-84 18v-114zM553 178l-127 -47v-39l217 78v430q-20 33 -63 66l-21 -7v-483zM440 84l267 -57v118l-58 13zM719 25l207 73l-207 43v-116zM938 109v395q0 68 -35 131l-217 -78 q33 -66 33 -135v-266zM897 647q-63 113 -178 152l-57 -21q-33 -33 -78 -49q23 -4 57 -27h2q12 -43 12 -98q14 -18 25 -35zM938 1010v184q0 115 -88 215l-219 -78q88 -102 88 -219v-184q0 -76 -41 -129l39 12v2q92 -8 156.5 48.5t64.5 148.5zM547 1329q68 -14 80 -22 q29 -18 28 -70v-248q0 -43 -16 -53q-4 -2 -21 -8l-210 -74q-6 -8 -25 -8q-6 0 -68 12v389l4 -2l228 80v4zM635 1280q-12 18 -76 33v-60zM547 1311l-203 -70q35 -8 41 -10q20 -10 31 -29l131 45v64zM555 938l-131 -45q0 -12 -4 -21l168 60zM547 950v283l-127 -43q6 -16 6 -37 v-246zM328 1231v-359l84 29v252q0 45 -21 59q-12 7 -63 19zM348 864q31 -6 35 -6q23 0 27 29zM643 987v252q0 14 -4 29l-80 -29v-287q53 -12 55 -10l17 4q12 12 12 41z" />
<glyph unicode="s" horiz-adv-x="1034" d="M895 1368v-2q47 -88 47 -160v-250l-151 -53q70 -35 110.5 -108.5t40.5 -153.5v-293q0 -137 -115 -194v-2l-231 -82q-57 -20 -90 -21q-18 0 -57 8l-166 35q-106 23 -184.5 115t-78.5 201v215h3l174 61q-76 25 -126.5 96.5t-50.5 151.5v336q0 160 148 202v0l197 70 q63 23 94 23q29 0 221 -41q135 -29 213 -154h2zM881 1364q-74 115 -203 143l-166 37q-18 4 -53 4q-29 0 -56 -6v-2q-70 -23 -104 -72l37 -8q145 -31 170 -41q92 -37 156 -133zM698 1022v100q0 84 -49 160q6 -16 6 -39v-211zM713 911v-22l39 14q-10 2 -39 8zM698 557 q0 82 -43 154v-297q0 -45 -18 -52l2 -2l-231 -81q-4 -10 -27 -11q-10 0 -16 2q20 -18 43 -34q2 2 2 0q49 -35 106 -48l156 -32q27 47 26 108v293zM264 557v-65q0 -78 45 -150q-2 6 -2 205zM250 684v4l-8 -2zM336 303q14 -20 45 -20t31 45v2zM322 545v-197q0 -18 6 -35l84 31 v234zM547 391q-8 18 -8 43v189l-113 -41v-234zM426 334q0 -25 -6 -37l170 59q-23 8 -37 25zM612 367q29 0 29 43v307l-164 -60l74 -14v-209q0 -23 8 -37h2q6 -30 51 -30zM530 633l-75 16l-29 -10v-43zM412 649l16 6l-164 35v-10zM412 635l-148 33v-97l55 -12l93 33v43z M264 1016q0 -74 43 -137v303q0 37 19 51v2l229 82q6 10 29 10t43 -14q-61 82 -150 104q-35 8 -186 39q-27 -45 -27 -104v-336zM551 999l90 33v213q0 20 -6 35l-84 -31v-250zM561 1305q-10 -12 -10 -39v-2l78 28q-16 20 -45 21q-10 0 -19 -4q0 -2 -4 -4zM539 1260q0 25 4 38 l-168 -59q25 -8 37 -25zM418 1202q8 -18 8 -43v-205l113 41v250zM322 1186v-303l129 45l-39 8v223q0 70 -60 70q-30 0 -30 -43zM436 944l39 -6l64 23v20zM545 948l-45 -16l198 -43v26zM551 961l147 -31v80l-51 10l-96 -35v-24zM319 1511l-92 -32q29 0 58 -6q14 20 34 38z M35 1268v-336q0 -72 41 -135l219 77q-45 68 -45 142v336q0 61 26 108q-25 4 -49 4q-84 0 -138 -56t-54 -140zM84 786q55 -76 133 -96l33 12v5l203 -43l170 61l-172 35q-86 16 -148 104zM319 862q47 -70 136 -88l182 -39q-57 74 -129 88zM219 678l-172 -62l203 -43v97 q-11 2 -31 8zM35 408q0 -156 141 -256v2l217 77q-143 104 -143 261v67l-215 47v-198zM188 143q43 -29 97 -39l166 -34q29 -6 55 -7q100 0 158 80q-45 8 -134 27q-72 14 -124 51zM643 100l94 35q-10 0 -29.5 3t-29.5 3q-15 -23 -35 -41zM930 348v293q0 76 -37 141l-219 -77 q39 -70 39 -148v-293q0 -63 -27 -110q25 -6 49 -7q86 0 140.5 57.5t54.5 143.5zM885 795q-47 74 -113 102l-59 -23v-2l-238 52l-141 -52l178 -36q90 -18 156 -119zM772 911l146 52l-205 43v-80q20 -5 59 -15zM930 973v233q0 78 -41 146l-219 -78q35 -57 41 -123 q2 -20 2 -131z" />
<glyph unicode="t" horiz-adv-x="1044" d="M254 1595l719 -151v-258h-4l-207 -74v-1001h-6l-224 -78v-6l-8 2h-2l-291 63v1120l-211 43v258h3zM250 1581l-203 -72l203 -45v117zM743 1350v-107l5 2v2l4 -2l206 -43v225zM743 1229v-109l5 2v109zM729 1239v111l-465 98v-98l209 -45v-1121l45 -8v987h2zM729 1225 l-184 -66l184 -39v105zM244 1208v-1102l217 76v1102zM469 172l-207 -74l256 -53v117zM250 1350v102l-215 45v-223zM47 1264l197 -41l207 73l-197 41zM532 47l197 70l-197 43v-113zM748 127v981l-5 -2v-4l-6 2l-205 43v-975zM762 1126l182 66l-182 39v-105zM942 1436 l-678 143v-117l471 -100z" />
<glyph unicode="u" horiz-adv-x="1044" d="M645 1495v-2l297 -63v-1115q0 -147 -129 -198v-2l-233 -84v2q-35 -14 -74 -15q-27 0 -55 7l-168 34q-127 27 -209 150h-2v4q-51 94 -52 162v1118h3l229 82v2l299 -64v-51zM643 1481l-92 -33v-68l92 -18v119zM672 123q29 47 28 108v1104l-45 11v-963q0 -45 -20 -53v-2 l-227 -80q-4 -10 -27 -10q-10 0 -16 2q61 -61 143 -80q4 -2 164 -37zM264 459q0 -78 45 -150v1110l-45 8v-968zM426 1395v-1073l119 43q-6 16 -6 41v964zM434 1405l105 -23v62zM551 352l-125 -45q0 -29 -6 -41l170 60q-27 6 -39 26zM412 297v6l-78 -29q16 -23 47 -22 q18 2 18 6v0q13 12 13 39zM641 379l2 969l-92 18v-960q0 -70 59 -70q31 0 31 43zM414 1409v4l125 43v39l-217 -76v-1102q0 -16 6 -30l84 30zM524 1505l-260 56v-119l51 -10zM252 1561l-205 -74l205 -43v117zM35 1477v-1102q0 -78 43 -150l219 78q-45 74 -45 156v973zM86 213 q76 -111 201 -139l166 -37q27 -6 53 -6q100 0 158 82q-168 35 -205 49q-92 37 -154 129zM639 68l102 34q-33 0 -63 7q-16 -23 -39 -41zM735 117q86 0 140.5 56t54.5 142v1098l-217 -78v-1104q0 -63 -27 -110q26 -4 49 -4zM915 1421l-260 56v-119l52 -10z" />
<glyph unicode="v" horiz-adv-x="1210" d="M924 84l-234 -84l-422 90l-248 1438l5 -2v2l227 82v2l330 -70l24 -160l4 19h4l-2 2l228 82v2l6 -2l311 -66zM512 186l190 -41l207 1180l-75 14l-115 -841h-6v-2l-226 -82q-4 0 -6 -2v2h-6q-61 506 -137 1032l-45 10zM606 1286l-117 -856l216 76zM924 1325l-207 -1184 l194 -41l228 1301zM1130 1411l-278 59l-16 -116l82 -19zM838 1468l-203 -71l188 -41zM621 1386l-7 -49q0 -2 2 -16q31 -188 62 -379q35 -227 35 -381v-10l108 792zM600 1337q-14 86 -29 189l-219 -78l33 -211q31 -190 61 -379q35 -225 35 -383v-10zM555 1534l-287 61 l23 -125l53 -12zM254 1595l-209 -73l231 -49zM37 1509l242 -1405l219 78l-219 1276zM297 98l383 -82l20 115l-190 41zM715 129l-21 -111l203 72z" />
<glyph unicode="w" horiz-adv-x="1677" d="M1329 1380v2l293 -61l-219 -1249h-2v-2l-217 -78l-2 6l-2 -6l-389 82l-13 84l-137 -49l-2 6v-9l-391 82l-228 1344h5v2l217 78l2 -8v10l301 -66l20 -131h2v2l217 80l308 -65l20 -134h4v3zM1327 1366l-194 -70l180 -39zM1118 1286l-2 -16l6 -43q29 -182 56 -365 q39 -268 32 -358l101 741zM1024 164l168 -35l192 1102l-61 12l-106 -788h-5v-2l-217 -76zM1202 463l-92 762l-115 -836zM1104 1270q-10 68 -23 145l-209 -74l29 -194q45 -305 62 -469q2 -53 16 -186l10 -64zM850 201l72 592l-207 -74l69 -504zM836 193l-50 10l5 -27z M770 219l-61 459l-54 -434zM924 809h4q-29 258 -70 532l-80 19l-106 -791q-2 2 -221 -75v2l-2 -7h-3l35 -208l162 -35l59 481h7v2l215 78v2zM414 682q-45 379 -103 776l-30 6zM657 580l-94 766l-112 -840zM1069 1425l-274 58l-17 -111l90 -18zM782 1483l-198 -70l182 -39z M571 1403l-2 -14q2 -8 9 -48q29 -178 57 -356q31 -219 31 -356v-8l100 741zM557 1389l-22 143l-211 -74l30 -196q29 -178 58 -357q33 -217 32 -356l-2 -10zM522 1540l-264 57l21 -118l40 -11zM246 1599l-203 -71l221 -47zM37 1518l221 -1313l211 74l-201 1189zM272 197 l355 -76l14 112l-166 35zM639 123l139 47l-6 35l-119 26zM791 162l12 -78h4l-4 8l209 74l-29 209h-2q-14 127 -49 383l-72 -572h-2zM813 82l356 -76l21 111l-174 37zM1184 6l196 70l-178 39zM1393 86l213 1219l-209 -74l-193 -1104zM1593 1313l-252 53l-16 -111l68 -14z" />
<glyph unicode="x" horiz-adv-x="1189" d="M807 1516l309 -66l-276 -659l252 -709l-7 2l-223 -80l2 -4l-317 68l-27 98l-158 -55l-2 -5l-313 68l250 600l-274 778l227 80v2l2 -2l2 2l2 -2l309 -65l37 -123zM881 1370l204 72l-274 59l-41 -108zM657 543l-59 168l270 647l-102 22l-88 -235h-2l-213 -76l78 -215 l-248 -590l92 -18l61 221h3v2zM668 514l-6 16l-209 -75l67 -238l60 -12zM559 195l-35 8l4 -19zM504 219l-55 203l-50 -180zM457 1087l2 -4l213 76l-76 256l-14 4zM610 1413l68 -227l74 196zM795 1497l-189 -67v-3l152 -32zM590 1438l-35 114l-215 -77q33 -125 111 -367 l122 326h2zM354 1376l-28 97l-7 2zM537 1559l-267 57l45 -127l15 -2zM254 1620l-207 -74l252 -53zM41 1534l266 -752l217 78l-73 205h-2v-2q-2 6 -7 14h2q-14 47 -139 402zM309 770l-241 -580l213 76l241 578zM78 180l274 -57l31 110l-98 21zM367 127l149 53l-8 25l-113 24z M532 172l25 -90l217 76q-31 113 -100 334l-84 -304l-6 2zM766 233l20 -73h7zM578 74l266 -56l-45 125l-17 4zM858 16l203 72l-248 53zM1071 100l-242 682l-215 -77l56 -158l6 2l2 4l37 -135q14 -39 94 -262zM827 795l267 637l-211 -76l-267 -637z" />
<glyph unicode="y" horiz-adv-x="1175" d="M1112 1419l-274 -667v-652l-232 -82v2l-313 68v647l-268 787l221 80v2l4 -2l4 2l2 -2l305 -66l37 -125l201 74zM307 104l211 74v629l-211 -76v-627zM532 180l66 -14l2 508q-2 2 0 2l268 651l-106 23l-86 -234q0 -2 -2 -2v-4l-2 4l-215 -78l75 -217v-639zM385 1243 l-59 199l-11 4zM582 1389l-125 -338l211 75l-76 260zM606 1382l68 -229l76 199zM612 666v-504l211 -45v624zM825 756l265 643l-207 -74l-267 -643zM1083 1411l-276 59l-39 -108l111 -23zM791 1466l-189 -67v-2l152 -31zM575 1403l11 4l-33 113l-213 -76l109 -373l124 332h2z M537 1528l-271 57l43 -125l23 -6zM252 1587l-205 -71l248 -54zM41 1503l262 -760l213 76l-217 629zM322 94l276 -57v115l-72 16zM612 150v-115l201 71z" />
<glyph unicode="z" horiz-adv-x="962" d="M913 96h-4l-227 -80l-614 134v194l282 866l-330 70v256h3l229 80l629 -133v-236l-297 -819l329 -70v-262zM262 1370l336 -70l-289 -878v-182l363 -78v106l-336 70l303 831v222l-377 79v-100zM250 1372v103l-217 45v-226zM684 264v-104l217 -47v229zM887 350l-312 68 l-204 -72l313 -67zM569 430l293 805l-213 -76l-293 -805zM868 1466l-217 -77v-215l217 75v217zM852 1475l-590 124v-114l387 -82zM250 1602l-201 -72l201 -43v115zM51 1288l316 -67l204 71l-317 68zM362 1204l-278 -852l213 76l281 852zM80 164l217 76v174l-217 -78v-172z M98 156l574 -123v114l-371 82zM684 31l201 71l-201 43v-114z" />
<glyph unicode="{" horiz-adv-x="1400" d="M917 1040l449 -120l-363 -234l133 -559l-12 -6l-260 313l92 -393l-10 -6l-334 399l-190 -125l2 -6q-88 -37 -193 -90l6 18l-2 2h2l136 488l-359 438l176 80l-4 4l10 -2h2l297 -78l109 375l2 -8l172 78l4 16zM747 950l416 -112l168 77l-414 111zM837 487l-28 119l344 221 l-424 115l-59 250l-23 -82h-2v-2l-176 -78l-2 -6l-101 25l201 -238l-4 -10l-119 -430l152 100q76 31 180 88zM680 496l-74 -35l8 -8zM475 1047l154 69l-125 31zM737 961l168 75l-123 535l-104 -352zM774 1591l-166 -73l64 -273zM602 1485l-94 -324l129 -35l26 93zM491 1151 l-266 70l127 -154l107 -27zM201 1229l-173 -78l302 -78zM45 1133l336 -402l170 78l-207 246zM387 721l-133 -475l172 112l121 435zM422 338l-109 -70l101 45zM434 332l170 112l-8 11l-158 -105zM938 66l-94 391l-68 82q-10 -4 -154 -97zM1116 152l-123 522l-168 -76l31 -135 zM987 692l276 178l-81 -36l4 -3l-293 -188l96 45zM952 35l184 82l5 -13l-185 -81z" />
<glyph unicode="|" horiz-adv-x="1400" d="M917 1040l449 -120l-363 -234l133 -559l-12 -6l-260 313l92 -393l-10 -6l-334 399l-190 -125l2 -6q-88 -37 -193 -90l6 18l-2 2h2l136 488l-359 438l176 80l-4 4l10 -2h2l297 -78l109 375l2 -8l172 78l4 16zM747 950l416 -112l168 77l-414 111zM837 487l-28 119l344 221 l-424 115l-59 250l-23 -82h-2v-2l-176 -78l-2 -6l-101 25l201 -238l-4 -10l-119 -430l152 100q76 31 180 88zM680 496l-74 -35l8 -8zM475 1047l154 69l-125 31zM737 961l168 75l-123 535l-104 -352zM774 1591l-166 -73l64 -273zM602 1485l-94 -324l129 -35l26 93zM491 1151 l-266 70l127 -154l107 -27zM201 1229l-173 -78l302 -78zM45 1133l336 -402l170 78l-207 246zM387 721l-133 -475l172 112l121 435zM422 338l-109 -70l101 45zM434 332l170 112l-8 11l-158 -105zM938 66l-94 391l-68 82q-10 -4 -154 -97zM1116 152l-123 522l-168 -76l31 -135 zM987 692l276 178l-81 -36l4 -3l-293 -188l96 45zM952 35l184 82l5 -13l-185 -81z" />
<glyph unicode="}" horiz-adv-x="1400" d="M917 1040l449 -120l-363 -234l133 -559l-12 -6l-260 313l92 -393l-10 -6l-334 399l-190 -125l2 -6q-88 -37 -193 -90l6 18l-2 2h2l136 488l-359 438l176 80l-4 4l10 -2h2l297 -78l109 375l2 -8l172 78l4 16zM747 950l416 -112l168 77l-414 111zM837 487l-28 119l344 221 l-424 115l-59 250l-23 -82h-2v-2l-176 -78l-2 -6l-101 25l201 -238l-4 -10l-119 -430l152 100q76 31 180 88zM680 496l-74 -35l8 -8zM475 1047l154 69l-125 31zM737 961l168 75l-123 535l-104 -352zM774 1591l-166 -73l64 -273zM602 1485l-94 -324l129 -35l26 93zM491 1151 l-266 70l127 -154l107 -27zM201 1229l-173 -78l302 -78zM45 1133l336 -402l170 78l-207 246zM387 721l-133 -475l172 112l121 435zM422 338l-109 -70l101 45zM434 332l170 112l-8 11l-158 -105zM938 66l-94 391l-68 82q-10 -4 -154 -97zM1116 152l-123 522l-168 -76l31 -135 zM987 692l276 178l-81 -36l4 -3l-293 -188l96 45zM952 35l184 82l5 -13l-185 -81z" />
<glyph unicode="~" horiz-adv-x="1400" d="M917 1040l449 -120l-363 -234l133 -559l-12 -6l-260 313l92 -393l-10 -6l-334 399l-190 -125l2 -6q-88 -37 -193 -90l6 18l-2 2h2l136 488l-359 438l176 80l-4 4l10 -2h2l297 -78l109 375l2 -8l172 78l4 16zM747 950l416 -112l168 77l-414 111zM837 487l-28 119l344 221 l-424 115l-59 250l-23 -82h-2v-2l-176 -78l-2 -6l-101 25l201 -238l-4 -10l-119 -430l152 100q76 31 180 88zM680 496l-74 -35l8 -8zM475 1047l154 69l-125 31zM737 961l168 75l-123 535l-104 -352zM774 1591l-166 -73l64 -273zM602 1485l-94 -324l129 -35l26 93zM491 1151 l-266 70l127 -154l107 -27zM201 1229l-173 -78l302 -78zM45 1133l336 -402l170 78l-207 246zM387 721l-133 -475l172 112l121 435zM422 338l-109 -70l101 45zM434 332l170 112l-8 11l-158 -105zM938 66l-94 391l-68 82q-10 -4 -154 -97zM1116 152l-123 522l-168 -76l31 -135 zM987 692l276 178l-81 -36l4 -3l-293 -188l96 45zM952 35l184 82l5 -13l-185 -81z" />
<glyph unicode="&#xa0;" />
<glyph unicode="&#xa1;" />
<glyph unicode="&#xa2;" />
<glyph unicode="&#xa3;" />
<glyph unicode="&#xa4;" />
<glyph unicode="&#xa5;" />
<glyph unicode="&#xa6;" />
<glyph unicode="&#xa7;" />
<glyph unicode="&#xa8;" />
<glyph unicode="&#xa9;" />
<glyph unicode="&#xaa;" />
<glyph unicode="&#xab;" />
<glyph unicode="&#xac;" />
<glyph unicode="&#xad;" horiz-adv-x="1400" d="M917 1040l449 -120l-363 -234l133 -559l-12 -6l-260 313l92 -393l-10 -6l-334 399l-190 -125l2 -6q-88 -37 -193 -90l6 18l-2 2h2l136 488l-359 438l176 80l-4 4l10 -2h2l297 -78l109 375l2 -8l172 78l4 16zM747 950l416 -112l168 77l-414 111zM837 487l-28 119l344 221 l-424 115l-59 250l-23 -82h-2v-2l-176 -78l-2 -6l-101 25l201 -238l-4 -10l-119 -430l152 100q76 31 180 88zM680 496l-74 -35l8 -8zM475 1047l154 69l-125 31zM737 961l168 75l-123 535l-104 -352zM774 1591l-166 -73l64 -273zM602 1485l-94 -324l129 -35l26 93zM491 1151 l-266 70l127 -154l107 -27zM201 1229l-173 -78l302 -78zM45 1133l336 -402l170 78l-207 246zM387 721l-133 -475l172 112l121 435zM422 338l-109 -70l101 45zM434 332l170 112l-8 11l-158 -105zM938 66l-94 391l-68 82q-10 -4 -154 -97zM1116 152l-123 522l-168 -76l31 -135 zM987 692l276 178l-81 -36l4 -3l-293 -188l96 45zM952 35l184 82l5 -13l-185 -81z" />
<glyph unicode="&#xae;" />
<glyph unicode="&#xaf;" />
<glyph unicode="&#xb0;" />
<glyph unicode="&#xb1;" />
<glyph unicode="&#xb2;" />
<glyph unicode="&#xb3;" />
<glyph unicode="&#xb4;" />
<glyph unicode="&#xb5;" />
<glyph unicode="&#xb6;" />
<glyph unicode="&#xb7;" />
<glyph unicode="&#xb8;" />
<glyph unicode="&#xb9;" />
<glyph unicode="&#xba;" />
<glyph unicode="&#xbb;" />
<glyph unicode="&#xbc;" />
<glyph unicode="&#xbd;" />
<glyph unicode="&#xbe;" />
<glyph unicode="&#xbf;" />
<glyph unicode="&#xc0;" />
<glyph unicode="&#xc1;" />
<glyph unicode="&#xc2;" />
<glyph unicode="&#xc3;" />
<glyph unicode="&#xc4;" />
<glyph unicode="&#xc5;" />
<glyph unicode="&#xc6;" />
<glyph unicode="&#xc7;" />
<glyph unicode="&#xc8;" />
<glyph unicode="&#xc9;" />
<glyph unicode="&#xca;" />
<glyph unicode="&#xcb;" />
<glyph unicode="&#xcc;" />
<glyph unicode="&#xcd;" />
<glyph unicode="&#xce;" />
<glyph unicode="&#xcf;" />
<glyph unicode="&#xd0;" />
<glyph unicode="&#xd1;" />
<glyph unicode="&#xd2;" />
<glyph unicode="&#xd3;" />
<glyph unicode="&#xd4;" />
<glyph unicode="&#xd5;" />
<glyph unicode="&#xd6;" />
<glyph unicode="&#xd7;" />
<glyph unicode="&#xd9;" />
<glyph unicode="&#xda;" />
<glyph unicode="&#xdb;" />
<glyph unicode="&#xdc;" />
<glyph unicode="&#xdd;" />
<glyph unicode="&#xde;" />
<glyph unicode="&#xdf;" />
<glyph unicode="&#xe0;" />
<glyph unicode="&#xe1;" />
<glyph unicode="&#xe2;" />
<glyph unicode="&#xe3;" />
<glyph unicode="&#xe4;" />
<glyph unicode="&#xe5;" />
<glyph unicode="&#xe7;" />
<glyph unicode="&#xe8;" />
<glyph unicode="&#xe9;" />
<glyph unicode="&#xea;" />
<glyph unicode="&#xeb;" />
<glyph unicode="&#xec;" />
<glyph unicode="&#xed;" />
<glyph unicode="&#xee;" />
<glyph unicode="&#xef;" />
<glyph unicode="&#xf0;" />
<glyph unicode="&#xf1;" />
<glyph unicode="&#xf2;" />
<glyph unicode="&#xf3;" />
<glyph unicode="&#xf4;" />
<glyph unicode="&#xf5;" />
<glyph unicode="&#xf6;" />
<glyph unicode="&#xf7;" />
<glyph unicode="&#xf8;" />
<glyph unicode="&#xf9;" />
<glyph unicode="&#xfa;" />
<glyph unicode="&#xfb;" />
<glyph unicode="&#xfc;" />
<glyph unicode="&#xfd;" />
<glyph unicode="&#xfe;" />
<glyph unicode="&#xff;" />
<glyph unicode="&#x152;" />
<glyph unicode="&#x153;" />
<glyph unicode="&#x178;" />
<glyph unicode="&#x2c6;" />
<glyph unicode="&#x2dc;" />
<glyph unicode="&#x2000;" horiz-adv-x="819" />
<glyph unicode="&#x2001;" horiz-adv-x="1638" />
<glyph unicode="&#x2002;" horiz-adv-x="819" />
<glyph unicode="&#x2003;" horiz-adv-x="1638" />
<glyph unicode="&#x2004;" horiz-adv-x="546" />
<glyph unicode="&#x2005;" horiz-adv-x="409" />
<glyph unicode="&#x2006;" horiz-adv-x="273" />
<glyph unicode="&#x2007;" horiz-adv-x="273" />
<glyph unicode="&#x2008;" horiz-adv-x="204" />
<glyph unicode="&#x2009;" horiz-adv-x="327" />
<glyph unicode="&#x200a;" horiz-adv-x="91" />
<glyph unicode="&#x2010;" horiz-adv-x="1400" d="M917 1040l449 -120l-363 -234l133 -559l-12 -6l-260 313l92 -393l-10 -6l-334 399l-190 -125l2 -6q-88 -37 -193 -90l6 18l-2 2h2l136 488l-359 438l176 80l-4 4l10 -2h2l297 -78l109 375l2 -8l172 78l4 16zM747 950l416 -112l168 77l-414 111zM837 487l-28 119l344 221 l-424 115l-59 250l-23 -82h-2v-2l-176 -78l-2 -6l-101 25l201 -238l-4 -10l-119 -430l152 100q76 31 180 88zM680 496l-74 -35l8 -8zM475 1047l154 69l-125 31zM737 961l168 75l-123 535l-104 -352zM774 1591l-166 -73l64 -273zM602 1485l-94 -324l129 -35l26 93zM491 1151 l-266 70l127 -154l107 -27zM201 1229l-173 -78l302 -78zM45 1133l336 -402l170 78l-207 246zM387 721l-133 -475l172 112l121 435zM422 338l-109 -70l101 45zM434 332l170 112l-8 11l-158 -105zM938 66l-94 391l-68 82q-10 -4 -154 -97zM1116 152l-123 522l-168 -76l31 -135 zM987 692l276 178l-81 -36l4 -3l-293 -188l96 45zM952 35l184 82l5 -13l-185 -81z" />
<glyph unicode="&#x2011;" horiz-adv-x="1400" d="M917 1040l449 -120l-363 -234l133 -559l-12 -6l-260 313l92 -393l-10 -6l-334 399l-190 -125l2 -6q-88 -37 -193 -90l6 18l-2 2h2l136 488l-359 438l176 80l-4 4l10 -2h2l297 -78l109 375l2 -8l172 78l4 16zM747 950l416 -112l168 77l-414 111zM837 487l-28 119l344 221 l-424 115l-59 250l-23 -82h-2v-2l-176 -78l-2 -6l-101 25l201 -238l-4 -10l-119 -430l152 100q76 31 180 88zM680 496l-74 -35l8 -8zM475 1047l154 69l-125 31zM737 961l168 75l-123 535l-104 -352zM774 1591l-166 -73l64 -273zM602 1485l-94 -324l129 -35l26 93zM491 1151 l-266 70l127 -154l107 -27zM201 1229l-173 -78l302 -78zM45 1133l336 -402l170 78l-207 246zM387 721l-133 -475l172 112l121 435zM422 338l-109 -70l101 45zM434 332l170 112l-8 11l-158 -105zM938 66l-94 391l-68 82q-10 -4 -154 -97zM1116 152l-123 522l-168 -76l31 -135 zM987 692l276 178l-81 -36l4 -3l-293 -188l96 45zM952 35l184 82l5 -13l-185 -81z" />
<glyph unicode="&#x2012;" horiz-adv-x="1400" d="M917 1040l449 -120l-363 -234l133 -559l-12 -6l-260 313l92 -393l-10 -6l-334 399l-190 -125l2 -6q-88 -37 -193 -90l6 18l-2 2h2l136 488l-359 438l176 80l-4 4l10 -2h2l297 -78l109 375l2 -8l172 78l4 16zM747 950l416 -112l168 77l-414 111zM837 487l-28 119l344 221 l-424 115l-59 250l-23 -82h-2v-2l-176 -78l-2 -6l-101 25l201 -238l-4 -10l-119 -430l152 100q76 31 180 88zM680 496l-74 -35l8 -8zM475 1047l154 69l-125 31zM737 961l168 75l-123 535l-104 -352zM774 1591l-166 -73l64 -273zM602 1485l-94 -324l129 -35l26 93zM491 1151 l-266 70l127 -154l107 -27zM201 1229l-173 -78l302 -78zM45 1133l336 -402l170 78l-207 246zM387 721l-133 -475l172 112l121 435zM422 338l-109 -70l101 45zM434 332l170 112l-8 11l-158 -105zM938 66l-94 391l-68 82q-10 -4 -154 -97zM1116 152l-123 522l-168 -76l31 -135 zM987 692l276 178l-81 -36l4 -3l-293 -188l96 45zM952 35l184 82l5 -13l-185 -81z" />
<glyph unicode="&#x2013;" />
<glyph unicode="&#x2014;" />
<glyph unicode="&#x2018;" />
<glyph unicode="&#x2019;" />
<glyph unicode="&#x201a;" />
<glyph unicode="&#x201c;" />
<glyph unicode="&#x201d;" />
<glyph unicode="&#x201e;" />
<glyph unicode="&#x2022;" />
<glyph unicode="&#x2026;" />
<glyph unicode="&#x202f;" horiz-adv-x="327" />
<glyph unicode="&#x2039;" />
<glyph unicode="&#x203a;" />
<glyph unicode="&#x205f;" horiz-adv-x="409" />
<glyph unicode="&#x2122;" />
<glyph unicode="&#x25fc;" horiz-adv-x="1638" d="M0 1638h1638v-1638h-1638v1638z" />
<glyph unicode="&#xfb01;" />
<glyph unicode="&#xfb02;" />
</font>
</defs>
</svg>
